G04 EAGLE Gerber RS-274X export*
G75*
%MOMM*%
%FSLAX34Y34*%
%LPD*%
%INTop Copper*%
%IPPOS*%
%AMOC8*
5,1,8,0,0,1.08239X$1,22.5*%
G01*
%ADD10C,1.000000*%
%ADD11C,0.609600*%
%ADD12R,0.600000X1.700000*%
%ADD13R,1.000000X2.800000*%
%ADD14C,0.756400*%
%ADD15C,0.609600*%
%ADD16C,0.406400*%

G36*
X266973Y253370D02*
X266973Y253370D01*
X267045Y253372D01*
X267094Y253389D01*
X267145Y253398D01*
X267208Y253431D01*
X267276Y253456D01*
X267316Y253489D01*
X267362Y253513D01*
X267412Y253565D01*
X267468Y253610D01*
X267496Y253654D01*
X267532Y253691D01*
X267562Y253756D01*
X267601Y253817D01*
X267613Y253867D01*
X267635Y253914D01*
X267643Y253986D01*
X267661Y254055D01*
X267657Y254107D01*
X267662Y254159D01*
X267647Y254229D01*
X267642Y254300D01*
X267621Y254348D01*
X267610Y254399D01*
X267573Y254461D01*
X267545Y254527D01*
X267500Y254583D01*
X267484Y254610D01*
X267466Y254626D01*
X267440Y254658D01*
X266702Y255397D01*
X266702Y278791D01*
X266692Y278847D01*
X266693Y278905D01*
X266673Y278968D01*
X266662Y279034D01*
X266635Y279084D01*
X266618Y279139D01*
X266578Y279192D01*
X266547Y279251D01*
X266505Y279291D01*
X266471Y279336D01*
X266417Y279375D01*
X266368Y279421D01*
X266317Y279445D01*
X266270Y279477D01*
X266206Y279496D01*
X266145Y279524D01*
X266089Y279531D01*
X266034Y279547D01*
X265967Y279544D01*
X265901Y279551D01*
X265845Y279539D01*
X265788Y279537D01*
X265726Y279513D01*
X265660Y279499D01*
X265611Y279470D01*
X265558Y279450D01*
X265476Y279389D01*
X265449Y279373D01*
X265441Y279363D01*
X265423Y279350D01*
X265148Y279096D01*
X265129Y279071D01*
X265104Y279051D01*
X265054Y278974D01*
X264997Y278902D01*
X264987Y278872D01*
X264969Y278845D01*
X264919Y278685D01*
X264914Y278661D01*
X264116Y278127D01*
X264092Y278105D01*
X264022Y278053D01*
X263317Y277401D01*
X263293Y277402D01*
X263262Y277398D01*
X263230Y277402D01*
X263140Y277383D01*
X263049Y277372D01*
X263021Y277358D01*
X262989Y277351D01*
X262841Y277274D01*
X262107Y276783D01*
X262084Y276762D01*
X262056Y276746D01*
X261995Y276678D01*
X261927Y276615D01*
X261912Y276587D01*
X261891Y276564D01*
X261816Y276414D01*
X261808Y276391D01*
X260936Y275988D01*
X260909Y275970D01*
X260832Y275930D01*
X260034Y275396D01*
X260010Y275401D01*
X259978Y275402D01*
X259947Y275410D01*
X259856Y275406D01*
X259764Y275409D01*
X259734Y275400D01*
X259702Y275398D01*
X259543Y275345D01*
X258742Y274975D01*
X258715Y274957D01*
X258685Y274946D01*
X258614Y274889D01*
X258538Y274837D01*
X258519Y274812D01*
X258494Y274792D01*
X258396Y274656D01*
X258384Y274635D01*
X257460Y274373D01*
X257430Y274359D01*
X257348Y274332D01*
X256477Y273929D01*
X256454Y273938D01*
X256423Y273944D01*
X256394Y273957D01*
X256302Y273967D01*
X256212Y273984D01*
X256181Y273980D01*
X256149Y273984D01*
X255984Y273956D01*
X255135Y273716D01*
X255106Y273702D01*
X255075Y273696D01*
X254995Y273651D01*
X254912Y273612D01*
X254889Y273590D01*
X254861Y273574D01*
X254744Y273454D01*
X254729Y273435D01*
X253775Y273322D01*
X253744Y273313D01*
X253658Y273299D01*
X252734Y273037D01*
X252713Y273049D01*
X252683Y273060D01*
X252656Y273078D01*
X252568Y273102D01*
X252481Y273133D01*
X252450Y273134D01*
X252419Y273142D01*
X252251Y273141D01*
X251375Y273036D01*
X251344Y273028D01*
X251313Y273026D01*
X251227Y272994D01*
X251139Y272968D01*
X251112Y272950D01*
X251083Y272939D01*
X250948Y272839D01*
X250930Y272823D01*
X249970Y272860D01*
X249938Y272856D01*
X249851Y272855D01*
X248898Y272742D01*
X248879Y272757D01*
X248851Y272772D01*
X248827Y272794D01*
X248744Y272831D01*
X248663Y272876D01*
X248632Y272881D01*
X248603Y272894D01*
X248437Y272919D01*
X247555Y272953D01*
X247524Y272949D01*
X247492Y272953D01*
X247403Y272934D01*
X247311Y272923D01*
X247283Y272909D01*
X247251Y272903D01*
X247103Y272825D01*
X247083Y272812D01*
X246141Y272999D01*
X246108Y273000D01*
X246022Y273013D01*
X245062Y273050D01*
X245046Y273067D01*
X245021Y273087D01*
X245001Y273112D01*
X244924Y273162D01*
X244852Y273219D01*
X244822Y273229D01*
X244795Y273247D01*
X244635Y273297D01*
X243770Y273469D01*
X243738Y273470D01*
X243707Y273479D01*
X243616Y273474D01*
X243524Y273477D01*
X243493Y273468D01*
X243462Y273466D01*
X243303Y273413D01*
X243281Y273403D01*
X242380Y273735D01*
X242347Y273741D01*
X242265Y273767D01*
X241323Y273954D01*
X241309Y273974D01*
X241287Y273997D01*
X241272Y274025D01*
X241204Y274087D01*
X241141Y274154D01*
X241113Y274169D01*
X241090Y274190D01*
X240940Y274265D01*
X240112Y274570D01*
X240080Y274576D01*
X240051Y274590D01*
X239960Y274599D01*
X239870Y274617D01*
X239839Y274612D01*
X239807Y274616D01*
X239641Y274588D01*
X239618Y274582D01*
X238780Y275050D01*
X238749Y275062D01*
X238671Y275100D01*
X237770Y275432D01*
X237760Y275454D01*
X237742Y275481D01*
X237731Y275510D01*
X237674Y275582D01*
X237622Y275658D01*
X237597Y275677D01*
X237577Y275702D01*
X237441Y275800D01*
X236671Y276230D01*
X236641Y276241D01*
X236614Y276259D01*
X236526Y276283D01*
X236439Y276314D01*
X236407Y276315D01*
X236377Y276323D01*
X236209Y276322D01*
X236185Y276319D01*
X235430Y276913D01*
X235402Y276929D01*
X235331Y276979D01*
X234493Y277448D01*
X234486Y277471D01*
X234473Y277500D01*
X234467Y277531D01*
X234421Y277611D01*
X234382Y277694D01*
X234360Y277717D01*
X234344Y277745D01*
X234225Y277862D01*
X233532Y278408D01*
X233504Y278423D01*
X233480Y278445D01*
X233397Y278483D01*
X233316Y278527D01*
X233285Y278533D01*
X233256Y278546D01*
X233090Y278571D01*
X233066Y278572D01*
X232414Y279276D01*
X232388Y279297D01*
X232326Y279357D01*
X231571Y279951D01*
X231569Y279975D01*
X231560Y280006D01*
X231559Y280038D01*
X231526Y280124D01*
X231500Y280212D01*
X231482Y280238D01*
X231471Y280268D01*
X231371Y280403D01*
X230772Y281050D01*
X230747Y281070D01*
X230727Y281095D01*
X230650Y281145D01*
X230578Y281201D01*
X230548Y281212D01*
X230521Y281229D01*
X230361Y281280D01*
X230338Y281285D01*
X229804Y282083D01*
X229781Y282107D01*
X229730Y282177D01*
X229077Y282881D01*
X229078Y282905D01*
X229074Y282937D01*
X229078Y282969D01*
X229059Y283059D01*
X229048Y283149D01*
X229034Y283178D01*
X229028Y283209D01*
X228950Y283358D01*
X228553Y283953D01*
X228511Y283998D01*
X228476Y284049D01*
X228427Y284087D01*
X228385Y284132D01*
X228330Y284161D01*
X228282Y284199D01*
X228276Y284201D01*
X227721Y285191D01*
X227707Y285208D01*
X227690Y285242D01*
X227570Y285422D01*
X227489Y285508D01*
X227410Y285595D01*
X227405Y285598D01*
X227402Y285602D01*
X227298Y285658D01*
X227195Y285715D01*
X227190Y285716D01*
X227185Y285718D01*
X227069Y285738D01*
X226953Y285760D01*
X226948Y285759D01*
X226943Y285760D01*
X226826Y285742D01*
X226710Y285725D01*
X226704Y285723D01*
X226700Y285722D01*
X226685Y285714D01*
X226556Y285658D01*
X173116Y254779D01*
X173079Y254748D01*
X173037Y254726D01*
X172985Y254671D01*
X172926Y254623D01*
X172901Y254582D01*
X172868Y254547D01*
X172836Y254479D01*
X172795Y254414D01*
X172784Y254368D01*
X172764Y254324D01*
X172756Y254249D01*
X172738Y254175D01*
X172742Y254127D01*
X172737Y254080D01*
X172753Y254006D01*
X172760Y253930D01*
X172779Y253886D01*
X172789Y253840D01*
X172828Y253774D01*
X172859Y253705D01*
X172891Y253669D01*
X172915Y253628D01*
X172973Y253579D01*
X173024Y253523D01*
X173066Y253500D01*
X173102Y253469D01*
X173173Y253440D01*
X173239Y253403D01*
X173286Y253395D01*
X173331Y253377D01*
X173459Y253362D01*
X173481Y253358D01*
X173487Y253359D01*
X173497Y253358D01*
X266902Y253358D01*
X266973Y253370D01*
G37*
G36*
X348960Y295330D02*
X348960Y295330D01*
X348980Y295328D01*
X349081Y295350D01*
X349183Y295366D01*
X349201Y295376D01*
X349220Y295380D01*
X349309Y295433D01*
X349400Y295481D01*
X349414Y295496D01*
X349431Y295506D01*
X349499Y295585D01*
X349570Y295660D01*
X349578Y295678D01*
X349591Y295693D01*
X349630Y295789D01*
X349673Y295883D01*
X349676Y295903D01*
X349683Y295921D01*
X349702Y296088D01*
X349702Y302570D01*
X349691Y302635D01*
X349690Y302700D01*
X349667Y302780D01*
X349662Y302813D01*
X349654Y302828D01*
X349654Y305079D01*
X349658Y305100D01*
X349683Y305161D01*
X349692Y305244D01*
X349700Y305276D01*
X349698Y305295D01*
X349702Y305328D01*
X349702Y313501D01*
X351190Y314990D01*
X359295Y314990D01*
X360783Y313501D01*
X360783Y310738D01*
X360790Y310693D01*
X360788Y310647D01*
X360810Y310572D01*
X360823Y310496D01*
X360844Y310455D01*
X360857Y310411D01*
X360901Y310347D01*
X360938Y310278D01*
X360971Y310247D01*
X360997Y310209D01*
X361060Y310162D01*
X361116Y310109D01*
X361158Y310090D01*
X361195Y310062D01*
X361269Y310038D01*
X361339Y310005D01*
X361385Y310000D01*
X361429Y309986D01*
X361506Y309987D01*
X361584Y309978D01*
X361629Y309988D01*
X361674Y309988D01*
X361806Y310026D01*
X361824Y310030D01*
X361828Y310033D01*
X361836Y310035D01*
X362524Y310320D01*
X365039Y310320D01*
X367363Y309358D01*
X369141Y307579D01*
X370104Y305255D01*
X370104Y302740D01*
X369141Y300416D01*
X367363Y298637D01*
X365039Y297675D01*
X362524Y297675D01*
X361836Y297960D01*
X361791Y297970D01*
X361749Y297990D01*
X361672Y297998D01*
X361596Y298016D01*
X361550Y298012D01*
X361505Y298017D01*
X361429Y298000D01*
X361351Y297993D01*
X361309Y297974D01*
X361264Y297964D01*
X361198Y297924D01*
X361127Y297893D01*
X361093Y297862D01*
X361053Y297838D01*
X361003Y297779D01*
X360945Y297726D01*
X360923Y297686D01*
X360893Y297651D01*
X360864Y297579D01*
X360827Y297511D01*
X360819Y297466D01*
X360801Y297423D01*
X360786Y297287D01*
X360783Y297269D01*
X360784Y297264D01*
X360783Y297256D01*
X360783Y296088D01*
X360786Y296068D01*
X360784Y296048D01*
X360806Y295947D01*
X360823Y295845D01*
X360832Y295827D01*
X360836Y295808D01*
X360889Y295719D01*
X360938Y295628D01*
X360952Y295614D01*
X360962Y295597D01*
X361041Y295530D01*
X361116Y295458D01*
X361134Y295450D01*
X361149Y295437D01*
X361246Y295398D01*
X361339Y295355D01*
X361359Y295352D01*
X361378Y295345D01*
X361544Y295327D01*
X373491Y295327D01*
X373527Y295333D01*
X373565Y295330D01*
X373648Y295352D01*
X373733Y295366D01*
X373766Y295384D01*
X373802Y295393D01*
X373875Y295441D01*
X373951Y295481D01*
X373976Y295508D01*
X374008Y295529D01*
X374117Y295656D01*
X374303Y295924D01*
X374316Y295953D01*
X374336Y295978D01*
X374368Y296064D01*
X374408Y296147D01*
X374411Y296178D01*
X374422Y296208D01*
X374437Y296375D01*
X374415Y297262D01*
X374409Y297293D01*
X374411Y297325D01*
X374386Y297413D01*
X374369Y297503D01*
X374354Y297531D01*
X374345Y297562D01*
X374258Y297705D01*
X374244Y297725D01*
X374370Y298676D01*
X374369Y298709D01*
X374377Y298796D01*
X374353Y299756D01*
X374370Y299773D01*
X374388Y299800D01*
X374411Y299821D01*
X374456Y299901D01*
X374508Y299976D01*
X374517Y300007D01*
X374533Y300035D01*
X374573Y300198D01*
X374690Y301077D01*
X374689Y301109D01*
X374696Y301140D01*
X374685Y301231D01*
X374682Y301322D01*
X374671Y301352D01*
X374668Y301384D01*
X374605Y301539D01*
X374593Y301561D01*
X374867Y302481D01*
X374871Y302514D01*
X374892Y302598D01*
X375019Y303550D01*
X375038Y303564D01*
X375060Y303588D01*
X375087Y303605D01*
X375144Y303676D01*
X375207Y303743D01*
X375220Y303772D01*
X375240Y303797D01*
X375305Y303952D01*
X375558Y304802D01*
X375562Y304833D01*
X375574Y304863D01*
X375578Y304954D01*
X375589Y305046D01*
X375583Y305077D01*
X375585Y305109D01*
X375547Y305272D01*
X375539Y305295D01*
X375953Y306161D01*
X375962Y306193D01*
X375996Y306272D01*
X376270Y307193D01*
X376291Y307204D01*
X376317Y307224D01*
X376346Y307237D01*
X376413Y307298D01*
X376486Y307355D01*
X376504Y307381D01*
X376527Y307403D01*
X376616Y307545D01*
X376926Y308194D01*
X376944Y308253D01*
X376970Y308309D01*
X376978Y308370D01*
X376995Y308430D01*
X376993Y308492D01*
X377000Y308553D01*
X377000Y308559D01*
X377569Y309541D01*
X377576Y309561D01*
X377596Y309594D01*
X377631Y309665D01*
X377662Y309774D01*
X377697Y309881D01*
X377697Y309892D01*
X377700Y309901D01*
X377695Y310015D01*
X377694Y310127D01*
X377690Y310137D01*
X377690Y310147D01*
X377649Y310253D01*
X377612Y310359D01*
X377606Y310367D01*
X377602Y310377D01*
X377530Y310464D01*
X377461Y310553D01*
X377451Y310561D01*
X377446Y310567D01*
X377425Y310580D01*
X377326Y310653D01*
X324005Y341527D01*
X323942Y341551D01*
X323882Y341584D01*
X323827Y341594D01*
X323775Y341614D01*
X323707Y341617D01*
X323640Y341629D01*
X323585Y341621D01*
X323530Y341623D01*
X323464Y341604D01*
X323397Y341595D01*
X323325Y341563D01*
X323294Y341554D01*
X323276Y341542D01*
X323243Y341527D01*
X270220Y310889D01*
X270136Y310820D01*
X270050Y310755D01*
X270042Y310742D01*
X270030Y310733D01*
X269972Y310641D01*
X269911Y310552D01*
X269907Y310537D01*
X269899Y310524D01*
X269874Y310419D01*
X269845Y310315D01*
X269845Y310300D01*
X269842Y310285D01*
X269851Y310177D01*
X269857Y310069D01*
X269863Y310052D01*
X269864Y310040D01*
X269876Y310013D01*
X269910Y309910D01*
X270273Y309123D01*
X270285Y309105D01*
X270300Y309070D01*
X270591Y308551D01*
X270592Y308550D01*
X270638Y308493D01*
X270670Y308438D01*
X270705Y308409D01*
X270745Y308359D01*
X270745Y308358D01*
X270819Y308311D01*
X270857Y308279D01*
X270890Y308265D01*
X270951Y308226D01*
X270952Y308226D01*
X270952Y308225D01*
X271050Y308201D01*
X271085Y308187D01*
X271122Y308183D01*
X271190Y308165D01*
X271191Y308165D01*
X271242Y308169D01*
X271252Y308168D01*
X271261Y308168D01*
X271291Y308173D01*
X271304Y308174D01*
X271435Y308184D01*
X271436Y308184D01*
X271484Y308205D01*
X271503Y308208D01*
X271553Y308234D01*
X271661Y308280D01*
X271662Y308281D01*
X271704Y308314D01*
X271721Y308323D01*
X271739Y308342D01*
X271793Y308386D01*
X272664Y309256D01*
X274988Y310218D01*
X277503Y310218D01*
X279827Y309256D01*
X280338Y308745D01*
X280412Y308691D01*
X280481Y308632D01*
X280512Y308620D01*
X280538Y308601D01*
X280625Y308574D01*
X280710Y308540D01*
X280751Y308536D01*
X280773Y308529D01*
X280805Y308530D01*
X280876Y308522D01*
X286440Y308522D01*
X286460Y308525D01*
X286480Y308523D01*
X286581Y308545D01*
X286683Y308562D01*
X286701Y308571D01*
X286720Y308575D01*
X286809Y308628D01*
X286900Y308677D01*
X286914Y308691D01*
X286931Y308701D01*
X286999Y308780D01*
X287070Y308855D01*
X287078Y308873D01*
X287091Y308888D01*
X287130Y308984D01*
X287173Y309078D01*
X287176Y309098D01*
X287183Y309116D01*
X287202Y309283D01*
X287202Y313501D01*
X288690Y314990D01*
X296795Y314990D01*
X298454Y313330D01*
X298470Y313319D01*
X298483Y313303D01*
X298570Y313247D01*
X298654Y313187D01*
X298673Y313181D01*
X298690Y313170D01*
X298790Y313145D01*
X298889Y313115D01*
X298909Y313115D01*
X298928Y313110D01*
X299031Y313118D01*
X299135Y313121D01*
X299153Y313128D01*
X299173Y313129D01*
X299268Y313170D01*
X299366Y313205D01*
X299381Y313218D01*
X299400Y313226D01*
X299531Y313330D01*
X301190Y314990D01*
X309295Y314990D01*
X310954Y313330D01*
X310970Y313319D01*
X310983Y313303D01*
X311070Y313247D01*
X311154Y313187D01*
X311173Y313181D01*
X311190Y313170D01*
X311290Y313145D01*
X311389Y313115D01*
X311409Y313115D01*
X311428Y313110D01*
X311531Y313118D01*
X311635Y313121D01*
X311653Y313128D01*
X311673Y313129D01*
X311768Y313170D01*
X311866Y313205D01*
X311881Y313218D01*
X311900Y313226D01*
X312031Y313330D01*
X313690Y314990D01*
X321795Y314990D01*
X323454Y313330D01*
X323470Y313319D01*
X323483Y313303D01*
X323570Y313247D01*
X323654Y313187D01*
X323673Y313181D01*
X323689Y313170D01*
X323790Y313145D01*
X323889Y313115D01*
X323909Y313115D01*
X323928Y313110D01*
X324031Y313118D01*
X324135Y313121D01*
X324153Y313128D01*
X324173Y313129D01*
X324268Y313170D01*
X324366Y313205D01*
X324381Y313218D01*
X324400Y313226D01*
X324531Y313330D01*
X326190Y314990D01*
X334295Y314990D01*
X335783Y313501D01*
X335783Y296202D01*
X335798Y296112D01*
X335805Y296021D01*
X335817Y295992D01*
X335823Y295960D01*
X335865Y295879D01*
X335901Y295795D01*
X335927Y295763D01*
X335938Y295742D01*
X335961Y295720D01*
X336006Y295664D01*
X336121Y295550D01*
X336194Y295496D01*
X336264Y295437D01*
X336294Y295425D01*
X336320Y295406D01*
X336407Y295379D01*
X336492Y295345D01*
X336533Y295340D01*
X336555Y295334D01*
X336588Y295334D01*
X336659Y295327D01*
X348940Y295327D01*
X348960Y295330D01*
G37*
G36*
X473488Y253366D02*
X473488Y253366D01*
X473535Y253364D01*
X473608Y253386D01*
X473684Y253398D01*
X473725Y253420D01*
X473771Y253434D01*
X473834Y253477D01*
X473901Y253513D01*
X473934Y253547D01*
X473972Y253575D01*
X474018Y253636D01*
X474070Y253691D01*
X474090Y253734D01*
X474118Y253773D01*
X474142Y253845D01*
X474174Y253914D01*
X474179Y253962D01*
X474194Y254007D01*
X474193Y254083D01*
X474201Y254159D01*
X474191Y254205D01*
X474190Y254253D01*
X474184Y254269D01*
X474185Y254271D01*
X474169Y254338D01*
X474161Y254408D01*
X474146Y254434D01*
X474139Y254464D01*
X474097Y254520D01*
X474063Y254581D01*
X474036Y254603D01*
X474021Y254624D01*
X473985Y254645D01*
X473980Y254649D01*
X473957Y254679D01*
X473852Y254756D01*
X473836Y254770D01*
X473830Y254773D01*
X473822Y254778D01*
X420949Y285393D01*
X420843Y285433D01*
X420739Y285476D01*
X420729Y285477D01*
X420719Y285480D01*
X420607Y285485D01*
X420494Y285492D01*
X420484Y285489D01*
X420473Y285490D01*
X420365Y285458D01*
X420256Y285429D01*
X420247Y285423D01*
X420238Y285420D01*
X420145Y285355D01*
X420051Y285293D01*
X420043Y285284D01*
X420036Y285279D01*
X420021Y285259D01*
X419941Y285166D01*
X419892Y285095D01*
X419882Y285075D01*
X419860Y285045D01*
X419286Y284053D01*
X419274Y284046D01*
X419218Y284020D01*
X419172Y283978D01*
X419121Y283944D01*
X419061Y283875D01*
X419037Y283853D01*
X419029Y283838D01*
X419011Y283817D01*
X418603Y283225D01*
X418589Y283196D01*
X418569Y283172D01*
X418537Y283086D01*
X418498Y283003D01*
X418494Y282971D01*
X418483Y282941D01*
X418468Y282774D01*
X418469Y282750D01*
X417807Y282054D01*
X417789Y282027D01*
X417732Y281962D01*
X417187Y281171D01*
X417163Y281167D01*
X417133Y281156D01*
X417101Y281153D01*
X417018Y281115D01*
X416931Y281084D01*
X416906Y281064D01*
X416877Y281051D01*
X416749Y280943D01*
X416138Y280300D01*
X416120Y280274D01*
X416096Y280253D01*
X416051Y280173D01*
X415999Y280097D01*
X415991Y280066D01*
X415975Y280039D01*
X415935Y279876D01*
X415932Y279852D01*
X415169Y279268D01*
X415146Y279245D01*
X415080Y279189D01*
X414418Y278493D01*
X414394Y278493D01*
X414363Y278487D01*
X414331Y278488D01*
X414242Y278464D01*
X414152Y278447D01*
X414124Y278431D01*
X414094Y278423D01*
X413950Y278336D01*
X413246Y277797D01*
X413224Y277774D01*
X413197Y277757D01*
X413140Y277685D01*
X413077Y277618D01*
X413064Y277589D01*
X413044Y277564D01*
X412979Y277410D01*
X412972Y277387D01*
X412127Y276930D01*
X412102Y276910D01*
X412027Y276865D01*
X411264Y276281D01*
X411240Y276284D01*
X411209Y276284D01*
X411178Y276290D01*
X411087Y276280D01*
X410995Y276277D01*
X410965Y276266D01*
X410933Y276262D01*
X410778Y276199D01*
X409998Y275777D01*
X409973Y275758D01*
X409944Y275745D01*
X409876Y275683D01*
X409803Y275627D01*
X409786Y275600D01*
X409762Y275579D01*
X409674Y275436D01*
X409663Y275415D01*
X408757Y275095D01*
X408729Y275080D01*
X408648Y275047D01*
X407804Y274590D01*
X407781Y274597D01*
X407749Y274601D01*
X407719Y274612D01*
X407628Y274616D01*
X407537Y274628D01*
X407505Y274622D01*
X407474Y274623D01*
X407310Y274585D01*
X406474Y274290D01*
X406446Y274275D01*
X406415Y274267D01*
X406338Y274216D01*
X406258Y274172D01*
X406237Y274149D01*
X406210Y274131D01*
X406100Y274004D01*
X406086Y273985D01*
X405142Y273811D01*
X405111Y273800D01*
X405027Y273780D01*
X404121Y273461D01*
X404099Y273471D01*
X404069Y273480D01*
X404041Y273496D01*
X403951Y273515D01*
X403863Y273540D01*
X403831Y273539D01*
X403800Y273545D01*
X403633Y273533D01*
X402761Y273373D01*
X402731Y273362D01*
X402699Y273359D01*
X402616Y273321D01*
X402529Y273290D01*
X402504Y273270D01*
X402475Y273257D01*
X402347Y273149D01*
X402330Y273132D01*
X401370Y273108D01*
X401338Y273102D01*
X401251Y273095D01*
X400307Y272922D01*
X400287Y272936D01*
X400258Y272949D01*
X400234Y272969D01*
X400148Y273001D01*
X400065Y273041D01*
X400033Y273044D01*
X400003Y273055D01*
X399836Y273070D01*
X398950Y273048D01*
X398918Y273042D01*
X398887Y273044D01*
X398798Y273019D01*
X398708Y273002D01*
X398680Y272987D01*
X398650Y272978D01*
X398506Y272891D01*
X398487Y272877D01*
X397535Y273003D01*
X397502Y273002D01*
X397415Y273010D01*
X396456Y272986D01*
X396438Y273003D01*
X396412Y273021D01*
X396391Y273044D01*
X396311Y273089D01*
X396235Y273141D01*
X396204Y273150D01*
X396177Y273165D01*
X396014Y273206D01*
X395135Y273323D01*
X395103Y273322D01*
X395072Y273329D01*
X394981Y273318D01*
X394889Y273315D01*
X394859Y273304D01*
X394827Y273301D01*
X394672Y273238D01*
X394651Y273226D01*
X393730Y273500D01*
X393698Y273504D01*
X393614Y273525D01*
X392662Y273652D01*
X392647Y273671D01*
X392624Y273693D01*
X392607Y273720D01*
X392535Y273777D01*
X392468Y273840D01*
X392439Y273853D01*
X392414Y273873D01*
X392260Y273938D01*
X391410Y274191D01*
X391378Y274195D01*
X391348Y274207D01*
X391257Y274211D01*
X391166Y274222D01*
X391134Y274216D01*
X391103Y274218D01*
X390939Y274180D01*
X390917Y274172D01*
X390050Y274586D01*
X390019Y274595D01*
X389939Y274629D01*
X389019Y274903D01*
X389007Y274924D01*
X388988Y274950D01*
X388975Y274979D01*
X388913Y275046D01*
X388857Y275119D01*
X388830Y275137D01*
X388809Y275160D01*
X388666Y275249D01*
X387866Y275632D01*
X387836Y275641D01*
X387808Y275657D01*
X387718Y275675D01*
X387630Y275701D01*
X387599Y275699D01*
X387567Y275706D01*
X387400Y275694D01*
X387376Y275689D01*
X386586Y276234D01*
X386556Y276248D01*
X386482Y276294D01*
X385616Y276709D01*
X385608Y276732D01*
X385593Y276760D01*
X385585Y276790D01*
X385534Y276867D01*
X385490Y276947D01*
X385467Y276969D01*
X385449Y276995D01*
X385322Y277105D01*
X384592Y277609D01*
X384563Y277622D01*
X384539Y277642D01*
X384453Y277674D01*
X384370Y277714D01*
X384338Y277717D01*
X384308Y277729D01*
X384141Y277743D01*
X384117Y277742D01*
X383421Y278404D01*
X383394Y278423D01*
X383329Y278479D01*
X382476Y279067D01*
X382474Y279068D01*
X382472Y279070D01*
X382362Y279121D01*
X382254Y279172D01*
X382251Y279172D01*
X382249Y279173D01*
X382131Y279187D01*
X382010Y279201D01*
X382007Y279200D01*
X382005Y279201D01*
X381887Y279175D01*
X381769Y279150D01*
X381767Y279149D01*
X381764Y279148D01*
X381660Y279086D01*
X381557Y279025D01*
X381555Y279023D01*
X381553Y279022D01*
X381474Y278929D01*
X381396Y278839D01*
X381395Y278837D01*
X381393Y278835D01*
X381347Y278721D01*
X381303Y278612D01*
X381302Y278609D01*
X381301Y278607D01*
X381283Y278440D01*
X381283Y255397D01*
X380544Y254658D01*
X380502Y254599D01*
X380453Y254547D01*
X380431Y254500D01*
X380400Y254458D01*
X380379Y254389D01*
X380349Y254324D01*
X380343Y254273D01*
X380328Y254223D01*
X380330Y254151D01*
X380322Y254080D01*
X380333Y254029D01*
X380334Y253977D01*
X380359Y253910D01*
X380374Y253840D01*
X380401Y253795D01*
X380419Y253746D01*
X380464Y253690D01*
X380501Y253628D01*
X380540Y253595D01*
X380573Y253554D01*
X380633Y253515D01*
X380687Y253469D01*
X380736Y253449D01*
X380780Y253421D01*
X380849Y253403D01*
X380916Y253377D01*
X380987Y253369D01*
X381018Y253361D01*
X381041Y253363D01*
X381082Y253358D01*
X473441Y253358D01*
X473488Y253366D01*
G37*
G36*
X302011Y267209D02*
X302011Y267209D01*
X302077Y267210D01*
X302157Y267233D01*
X302189Y267238D01*
X302206Y267247D01*
X302238Y267257D01*
X303870Y267933D01*
X306385Y267933D01*
X308017Y267257D01*
X308081Y267242D01*
X308142Y267217D01*
X308225Y267208D01*
X308257Y267200D01*
X308276Y267202D01*
X308309Y267199D01*
X341156Y267199D01*
X341221Y267209D01*
X341287Y267210D01*
X341367Y267233D01*
X341399Y267238D01*
X341416Y267247D01*
X341448Y267257D01*
X343080Y267933D01*
X345595Y267933D01*
X347227Y267257D01*
X347291Y267242D01*
X347352Y267217D01*
X347435Y267208D01*
X347467Y267200D01*
X347486Y267202D01*
X347519Y267199D01*
X362273Y267199D01*
X362363Y267213D01*
X362454Y267220D01*
X362484Y267233D01*
X362516Y267238D01*
X362596Y267281D01*
X362680Y267317D01*
X362712Y267342D01*
X362733Y267353D01*
X362755Y267377D01*
X362811Y267422D01*
X365979Y270589D01*
X366032Y270663D01*
X366091Y270732D01*
X366103Y270763D01*
X366122Y270789D01*
X366149Y270876D01*
X366183Y270961D01*
X366188Y271002D01*
X366194Y271024D01*
X366194Y271056D01*
X366202Y271127D01*
X366202Y275894D01*
X366194Y275940D01*
X366196Y275986D01*
X366174Y276060D01*
X366162Y276137D01*
X366140Y276178D01*
X366128Y276222D01*
X366083Y276286D01*
X366047Y276354D01*
X366013Y276386D01*
X365987Y276424D01*
X365925Y276470D01*
X365868Y276524D01*
X365827Y276543D01*
X365790Y276571D01*
X365716Y276595D01*
X365645Y276627D01*
X365600Y276633D01*
X365556Y276647D01*
X365478Y276646D01*
X365401Y276655D01*
X365356Y276645D01*
X365310Y276644D01*
X365179Y276606D01*
X365160Y276602D01*
X365156Y276600D01*
X365149Y276598D01*
X363279Y275823D01*
X360763Y275823D01*
X358440Y276786D01*
X357875Y277350D01*
X357801Y277403D01*
X357732Y277463D01*
X357702Y277475D01*
X357675Y277494D01*
X357588Y277520D01*
X357504Y277555D01*
X357463Y277559D01*
X357440Y277566D01*
X357408Y277565D01*
X357337Y277573D01*
X328712Y277573D01*
X313169Y293116D01*
X313155Y293203D01*
X313148Y293294D01*
X313135Y293324D01*
X313130Y293356D01*
X313087Y293437D01*
X313051Y293521D01*
X313026Y293553D01*
X313015Y293573D01*
X312991Y293596D01*
X312947Y293652D01*
X312031Y294568D01*
X312014Y294579D01*
X312002Y294595D01*
X311915Y294651D01*
X311831Y294711D01*
X311812Y294717D01*
X311795Y294728D01*
X311694Y294753D01*
X311596Y294784D01*
X311576Y294783D01*
X311557Y294788D01*
X311453Y294780D01*
X311350Y294777D01*
X311331Y294770D01*
X311311Y294769D01*
X311216Y294728D01*
X311119Y294693D01*
X311103Y294680D01*
X311085Y294672D01*
X310954Y294568D01*
X310038Y293652D01*
X309985Y293578D01*
X309925Y293508D01*
X309913Y293478D01*
X309894Y293452D01*
X309868Y293365D01*
X309833Y293280D01*
X309829Y293239D01*
X309822Y293217D01*
X309823Y293185D01*
X309815Y293113D01*
X309815Y292609D01*
X303387Y286181D01*
X282544Y286181D01*
X282525Y286178D01*
X282505Y286180D01*
X282404Y286158D01*
X282301Y286141D01*
X282284Y286132D01*
X282264Y286128D01*
X282175Y286075D01*
X282084Y286026D01*
X282070Y286012D01*
X282053Y286002D01*
X281986Y285923D01*
X281915Y285848D01*
X281906Y285830D01*
X281893Y285815D01*
X281855Y285718D01*
X281811Y285625D01*
X281809Y285605D01*
X281801Y285587D01*
X281783Y285420D01*
X281783Y271127D01*
X281798Y271037D01*
X281805Y270946D01*
X281817Y270917D01*
X281823Y270885D01*
X281865Y270804D01*
X281901Y270720D01*
X281927Y270688D01*
X281938Y270667D01*
X281961Y270645D01*
X282006Y270589D01*
X285173Y267422D01*
X285247Y267368D01*
X285317Y267309D01*
X285347Y267297D01*
X285373Y267278D01*
X285460Y267251D01*
X285545Y267217D01*
X285586Y267213D01*
X285608Y267206D01*
X285640Y267206D01*
X285712Y267199D01*
X301947Y267199D01*
X302011Y267209D01*
G37*
G36*
X401008Y275641D02*
X401008Y275641D01*
X401040Y275649D01*
X401086Y275649D01*
X404388Y276256D01*
X404419Y276269D01*
X404464Y276277D01*
X407630Y277393D01*
X407659Y277410D01*
X407702Y277425D01*
X410655Y279022D01*
X410680Y279044D01*
X410720Y279065D01*
X413387Y281105D01*
X413409Y281130D01*
X413445Y281158D01*
X415760Y283590D01*
X415777Y283618D01*
X415809Y283650D01*
X417715Y286415D01*
X417726Y286441D01*
X417744Y286462D01*
X417764Y286531D01*
X417793Y286598D01*
X417793Y286626D01*
X417801Y286653D01*
X417793Y286724D01*
X417793Y286797D01*
X417782Y286823D01*
X417779Y286850D01*
X417744Y286913D01*
X417716Y286980D01*
X417696Y286999D01*
X417682Y287024D01*
X417603Y287089D01*
X417573Y287118D01*
X417564Y287122D01*
X417554Y287130D01*
X380525Y308578D01*
X380498Y308587D01*
X380475Y308603D01*
X380405Y308619D01*
X380336Y308642D01*
X380308Y308639D01*
X380281Y308645D01*
X380210Y308632D01*
X380138Y308626D01*
X380113Y308614D01*
X380086Y308608D01*
X380026Y308568D01*
X379962Y308535D01*
X379944Y308513D01*
X379920Y308498D01*
X379861Y308414D01*
X379835Y308382D01*
X379832Y308372D01*
X379824Y308362D01*
X378375Y305333D01*
X378367Y305301D01*
X378347Y305260D01*
X377388Y302043D01*
X377385Y302009D01*
X377372Y301966D01*
X376929Y298638D01*
X376931Y298605D01*
X376925Y298560D01*
X377008Y295203D01*
X377016Y295171D01*
X377016Y295125D01*
X377623Y291823D01*
X377636Y291792D01*
X377644Y291747D01*
X378760Y288581D01*
X378777Y288553D01*
X378792Y288509D01*
X380389Y285557D01*
X380411Y285531D01*
X380432Y285491D01*
X382472Y282824D01*
X382497Y282803D01*
X382525Y282766D01*
X384957Y280452D01*
X384985Y280434D01*
X385018Y280402D01*
X387782Y278497D01*
X387812Y278484D01*
X387850Y278457D01*
X390878Y277008D01*
X390910Y277000D01*
X390951Y276980D01*
X394169Y276021D01*
X394202Y276018D01*
X394245Y276005D01*
X397573Y275562D01*
X397607Y275564D01*
X397652Y275558D01*
X401008Y275641D01*
G37*
G36*
X249803Y275416D02*
X249803Y275416D01*
X249848Y275414D01*
X253178Y275810D01*
X253209Y275821D01*
X253255Y275826D01*
X256481Y276738D01*
X256511Y276753D01*
X256555Y276765D01*
X259599Y278170D01*
X259626Y278190D01*
X259667Y278209D01*
X262454Y280073D01*
X262477Y280097D01*
X262516Y280122D01*
X264976Y282399D01*
X264996Y282426D01*
X265030Y282457D01*
X267104Y285091D01*
X267119Y285121D01*
X267147Y285156D01*
X268784Y288083D01*
X268794Y288115D01*
X268817Y288154D01*
X269975Y291301D01*
X269980Y291333D01*
X269997Y291376D01*
X270649Y294665D01*
X270649Y294698D01*
X270658Y294743D01*
X270788Y298093D01*
X270782Y298126D01*
X270785Y298172D01*
X270388Y301501D01*
X270378Y301533D01*
X270373Y301578D01*
X269461Y304805D01*
X269446Y304834D01*
X269434Y304878D01*
X268028Y307922D01*
X268012Y307945D01*
X268002Y307972D01*
X267953Y308025D01*
X267911Y308083D01*
X267887Y308097D01*
X267867Y308118D01*
X267802Y308148D01*
X267740Y308184D01*
X267712Y308188D01*
X267686Y308200D01*
X267614Y308202D01*
X267543Y308211D01*
X267516Y308204D01*
X267488Y308205D01*
X267391Y308170D01*
X267351Y308159D01*
X267343Y308153D01*
X267331Y308149D01*
X230056Y287245D01*
X230035Y287226D01*
X230009Y287215D01*
X229960Y287162D01*
X229905Y287115D01*
X229893Y287090D01*
X229874Y287069D01*
X229849Y287001D01*
X229817Y286936D01*
X229816Y286908D01*
X229806Y286882D01*
X229810Y286810D01*
X229806Y286738D01*
X229815Y286711D01*
X229817Y286683D01*
X229859Y286590D01*
X229873Y286551D01*
X229880Y286543D01*
X229885Y286532D01*
X231750Y283745D01*
X231773Y283721D01*
X231798Y283683D01*
X234076Y281222D01*
X234103Y281203D01*
X234133Y281169D01*
X236768Y279095D01*
X236797Y279080D01*
X236833Y279051D01*
X239759Y277415D01*
X239791Y277405D01*
X239831Y277382D01*
X242977Y276223D01*
X243010Y276218D01*
X243052Y276202D01*
X246341Y275550D01*
X246375Y275550D01*
X246419Y275541D01*
X249770Y275411D01*
X249803Y275416D01*
G37*
D10*
X323674Y332882D03*
D11*
X456756Y258259D03*
X188988Y258410D03*
D10*
X395241Y291525D03*
X252140Y291582D03*
D12*
X317742Y303949D03*
D13*
X274242Y270449D03*
X373742Y270449D03*
D12*
X330242Y303949D03*
X342742Y303949D03*
X355242Y303949D03*
X305242Y303949D03*
X292742Y303949D03*
D14*
X260985Y269557D03*
X286921Y276283D03*
X358978Y271859D03*
X384411Y272161D03*
X338044Y317106D03*
D15*
X355242Y303949D02*
X363733Y303949D01*
X363781Y303997D01*
D14*
X363781Y303997D03*
X305128Y261610D03*
X344338Y261610D03*
D15*
X364903Y261610D01*
X373742Y270449D01*
X344338Y261610D02*
X305128Y261610D01*
X283081Y261610D01*
X274242Y270449D01*
D16*
X305242Y294503D02*
X305242Y303949D01*
X305242Y294503D02*
X301493Y290754D01*
X252969Y290754D02*
X252140Y291582D01*
X252969Y290754D02*
X301493Y290754D01*
X317742Y295010D02*
X317742Y303949D01*
X330606Y282146D02*
X362021Y282146D01*
D14*
X362021Y282146D03*
D16*
X330606Y282146D02*
X317742Y295010D01*
X292742Y303949D02*
X276299Y303949D01*
X276245Y303896D01*
D14*
X276245Y303896D03*
D16*
X330242Y303949D02*
X330242Y294961D01*
X334449Y290754D01*
X394470Y290754D01*
X395241Y291525D01*
M02*
