G04 EAGLE Gerber RS-274X export*
G75*
%MOMM*%
%FSLAX34Y34*%
%LPD*%
%INBottom Copper*%
%IPPOS*%
%AMOC8*
5,1,8,0,0,1.08239X$1,22.5*%
G01*
%ADD10C,1.000000*%
%ADD11C,0.609600*%
%ADD12C,0.756400*%
%ADD13C,0.609600*%
%ADD14C,0.406400*%

G36*
X473487Y253366D02*
X473487Y253366D01*
X473535Y253364D01*
X473608Y253386D01*
X473684Y253398D01*
X473725Y253420D01*
X473771Y253433D01*
X473833Y253477D01*
X473901Y253513D01*
X473933Y253547D01*
X473972Y253574D01*
X474018Y253636D01*
X474070Y253691D01*
X474090Y253734D01*
X474118Y253772D01*
X474142Y253845D01*
X474174Y253914D01*
X474179Y253961D01*
X474194Y254006D01*
X474193Y254083D01*
X474201Y254159D01*
X474191Y254205D01*
X474190Y254252D01*
X474184Y254269D01*
X474185Y254271D01*
X474169Y254338D01*
X474161Y254408D01*
X474146Y254434D01*
X474139Y254464D01*
X474097Y254520D01*
X474063Y254581D01*
X474036Y254603D01*
X474021Y254624D01*
X473985Y254645D01*
X473980Y254649D01*
X473958Y254678D01*
X473852Y254756D01*
X473836Y254770D01*
X473830Y254773D01*
X473823Y254778D01*
X420977Y285416D01*
X420956Y285424D01*
X420939Y285436D01*
X420842Y285467D01*
X420747Y285503D01*
X420725Y285504D01*
X420704Y285511D01*
X420603Y285509D01*
X420501Y285513D01*
X420480Y285507D01*
X420459Y285506D01*
X420363Y285472D01*
X420265Y285443D01*
X420247Y285431D01*
X420227Y285424D01*
X420147Y285361D01*
X420063Y285302D01*
X420051Y285285D01*
X420034Y285272D01*
X419935Y285136D01*
X419412Y284226D01*
X419401Y284218D01*
X419344Y284192D01*
X419299Y284150D01*
X419248Y284116D01*
X419189Y284047D01*
X419165Y284025D01*
X419157Y284010D01*
X419139Y283989D01*
X418788Y283475D01*
X418787Y283475D01*
X418730Y283391D01*
X418717Y283362D01*
X418697Y283337D01*
X418665Y283251D01*
X418626Y283168D01*
X418622Y283136D01*
X418611Y283106D01*
X418598Y282939D01*
X418598Y282915D01*
X417939Y282217D01*
X417921Y282189D01*
X417864Y282124D01*
X417323Y281331D01*
X417299Y281326D01*
X417269Y281315D01*
X417237Y281312D01*
X417154Y281274D01*
X417068Y281242D01*
X417043Y281223D01*
X417014Y281209D01*
X416886Y281101D01*
X416274Y280452D01*
X416256Y280426D01*
X416233Y280405D01*
X416188Y280324D01*
X416136Y280248D01*
X416128Y280218D01*
X416112Y280190D01*
X416073Y280027D01*
X416070Y280003D01*
X415309Y279416D01*
X415287Y279392D01*
X415221Y279336D01*
X414562Y278638D01*
X414538Y278637D01*
X414507Y278631D01*
X414475Y278633D01*
X414386Y278608D01*
X414296Y278590D01*
X414269Y278575D01*
X414238Y278566D01*
X414095Y278479D01*
X413389Y277934D01*
X413367Y277911D01*
X413340Y277893D01*
X413283Y277821D01*
X413221Y277754D01*
X413208Y277725D01*
X413188Y277700D01*
X413123Y277546D01*
X413117Y277522D01*
X412274Y277062D01*
X412248Y277042D01*
X412174Y276996D01*
X411414Y276410D01*
X411390Y276413D01*
X411358Y276412D01*
X411327Y276418D01*
X411236Y276408D01*
X411144Y276405D01*
X411114Y276393D01*
X411083Y276390D01*
X410927Y276326D01*
X410145Y275898D01*
X410120Y275879D01*
X410091Y275866D01*
X410023Y275804D01*
X409951Y275747D01*
X409933Y275720D01*
X409910Y275699D01*
X409822Y275556D01*
X409812Y275534D01*
X408907Y275211D01*
X408879Y275195D01*
X408798Y275162D01*
X407956Y274702D01*
X407933Y274709D01*
X407901Y274712D01*
X407871Y274724D01*
X407779Y274727D01*
X407688Y274739D01*
X407657Y274732D01*
X407625Y274734D01*
X407462Y274695D01*
X406623Y274395D01*
X406595Y274380D01*
X406564Y274371D01*
X406488Y274320D01*
X406407Y274276D01*
X406386Y274252D01*
X406359Y274235D01*
X406250Y274107D01*
X406236Y274088D01*
X405293Y273910D01*
X405262Y273899D01*
X405177Y273879D01*
X404273Y273556D01*
X404251Y273566D01*
X404221Y273575D01*
X404193Y273591D01*
X404103Y273609D01*
X404015Y273634D01*
X403983Y273633D01*
X403952Y273639D01*
X403785Y273626D01*
X402908Y273461D01*
X402879Y273450D01*
X402847Y273447D01*
X402763Y273409D01*
X402677Y273377D01*
X402652Y273357D01*
X402623Y273344D01*
X402496Y273236D01*
X402479Y273218D01*
X401519Y273190D01*
X401487Y273184D01*
X401400Y273177D01*
X400457Y273000D01*
X400437Y273013D01*
X400408Y273027D01*
X400383Y273047D01*
X400297Y273079D01*
X400214Y273117D01*
X400182Y273121D01*
X400152Y273132D01*
X399985Y273146D01*
X399094Y273120D01*
X399063Y273114D01*
X399031Y273115D01*
X398943Y273091D01*
X398852Y273073D01*
X398825Y273057D01*
X398794Y273049D01*
X398651Y272962D01*
X398632Y272947D01*
X397679Y273070D01*
X397646Y273068D01*
X397560Y273075D01*
X396600Y273048D01*
X396583Y273064D01*
X396556Y273082D01*
X396535Y273106D01*
X396455Y273151D01*
X396379Y273202D01*
X396348Y273210D01*
X396320Y273226D01*
X396157Y273266D01*
X395273Y273380D01*
X395241Y273378D01*
X395210Y273385D01*
X395119Y273374D01*
X395027Y273371D01*
X394997Y273360D01*
X394966Y273356D01*
X394811Y273293D01*
X394789Y273281D01*
X393868Y273551D01*
X393835Y273555D01*
X393751Y273576D01*
X392799Y273698D01*
X392784Y273717D01*
X392761Y273739D01*
X392743Y273766D01*
X392671Y273823D01*
X392604Y273885D01*
X392575Y273898D01*
X392550Y273918D01*
X392395Y273983D01*
X391709Y274184D01*
X391705Y274185D01*
X391700Y274187D01*
X391583Y274200D01*
X391465Y274214D01*
X391461Y274213D01*
X391456Y274214D01*
X391340Y274189D01*
X391224Y274165D01*
X391220Y274163D01*
X391215Y274161D01*
X391114Y274101D01*
X391012Y274041D01*
X391008Y274038D01*
X391004Y274035D01*
X390927Y273945D01*
X390849Y273857D01*
X390848Y273852D01*
X390844Y273848D01*
X390800Y273738D01*
X390755Y273630D01*
X390754Y273625D01*
X390752Y273620D01*
X390734Y273454D01*
X390734Y270903D01*
X389771Y268579D01*
X387993Y266801D01*
X385669Y265838D01*
X383154Y265838D01*
X382251Y266212D01*
X382187Y266227D01*
X382127Y266252D01*
X382044Y266261D01*
X382012Y266268D01*
X381992Y266266D01*
X381960Y266270D01*
X362159Y266270D01*
X362095Y266259D01*
X362029Y266259D01*
X361949Y266236D01*
X361917Y266230D01*
X361899Y266221D01*
X361868Y266212D01*
X360236Y265536D01*
X357721Y265536D01*
X356088Y266212D01*
X356025Y266227D01*
X355964Y266252D01*
X355881Y266261D01*
X355849Y266268D01*
X355830Y266266D01*
X355797Y266270D01*
X354636Y266270D01*
X352582Y267121D01*
X333306Y286397D01*
X332455Y288451D01*
X332455Y313925D01*
X332444Y313990D01*
X332444Y314055D01*
X332420Y314135D01*
X332415Y314168D01*
X332406Y314185D01*
X332397Y314216D01*
X331721Y315849D01*
X331721Y318364D01*
X332683Y320688D01*
X334462Y322466D01*
X336786Y323429D01*
X339301Y323429D01*
X341625Y322466D01*
X343404Y320688D01*
X344366Y318364D01*
X344366Y315849D01*
X343690Y314216D01*
X343675Y314153D01*
X343651Y314092D01*
X343642Y314009D01*
X343634Y313977D01*
X343636Y313958D01*
X343632Y313925D01*
X343632Y292193D01*
X343647Y292103D01*
X343654Y292012D01*
X343667Y291982D01*
X343672Y291950D01*
X343696Y291905D01*
X343696Y291902D01*
X343705Y291888D01*
X343715Y291869D01*
X343750Y291786D01*
X343776Y291753D01*
X343787Y291733D01*
X343810Y291711D01*
X343813Y291708D01*
X343823Y291691D01*
X343834Y291682D01*
X343855Y291655D01*
X354399Y281111D01*
X354457Y281069D01*
X354509Y281020D01*
X354556Y280998D01*
X354599Y280967D01*
X354667Y280946D01*
X354732Y280916D01*
X354784Y280910D01*
X354834Y280895D01*
X354905Y280897D01*
X354977Y280889D01*
X355027Y280900D01*
X355080Y280901D01*
X355147Y280926D01*
X355217Y280941D01*
X355262Y280968D01*
X355311Y280986D01*
X355367Y281031D01*
X355428Y281067D01*
X355462Y281107D01*
X355503Y281139D01*
X355541Y281200D01*
X355588Y281254D01*
X355607Y281303D01*
X355636Y281346D01*
X355653Y281416D01*
X355680Y281482D01*
X355688Y281554D01*
X355696Y281585D01*
X355694Y281608D01*
X355698Y281649D01*
X355698Y283403D01*
X356661Y285727D01*
X358440Y287506D01*
X360763Y288468D01*
X363279Y288468D01*
X365603Y287506D01*
X366167Y286941D01*
X366241Y286888D01*
X366311Y286829D01*
X366341Y286817D01*
X366367Y286798D01*
X366454Y286771D01*
X366539Y286737D01*
X366580Y286732D01*
X366602Y286726D01*
X366634Y286726D01*
X366705Y286718D01*
X375647Y286718D01*
X375732Y286732D01*
X375819Y286738D01*
X375853Y286752D01*
X375890Y286758D01*
X375966Y286799D01*
X376046Y286832D01*
X376074Y286856D01*
X376107Y286873D01*
X376166Y286936D01*
X376232Y286993D01*
X376251Y287025D01*
X376276Y287052D01*
X376313Y287130D01*
X376357Y287205D01*
X376364Y287241D01*
X376380Y287275D01*
X376390Y287361D01*
X376407Y287445D01*
X376403Y287482D01*
X376407Y287519D01*
X376389Y287604D01*
X376379Y287690D01*
X376360Y287734D01*
X376355Y287760D01*
X376339Y287786D01*
X376315Y287845D01*
X376010Y288402D01*
X376017Y288425D01*
X376021Y288457D01*
X376032Y288486D01*
X376036Y288578D01*
X376047Y288669D01*
X376041Y288700D01*
X376042Y288732D01*
X376004Y288895D01*
X375704Y289735D01*
X375688Y289763D01*
X375680Y289794D01*
X375629Y289870D01*
X375585Y289950D01*
X375561Y289972D01*
X375543Y289998D01*
X375416Y290107D01*
X375396Y290121D01*
X375219Y291065D01*
X375207Y291096D01*
X375187Y291180D01*
X374864Y292084D01*
X374875Y292106D01*
X374883Y292137D01*
X374899Y292164D01*
X374917Y292254D01*
X374943Y292343D01*
X374941Y292374D01*
X374947Y292406D01*
X374935Y292573D01*
X374770Y293449D01*
X374759Y293479D01*
X374756Y293511D01*
X374717Y293594D01*
X374686Y293680D01*
X374666Y293705D01*
X374653Y293734D01*
X374544Y293862D01*
X374527Y293879D01*
X374499Y294838D01*
X374493Y294871D01*
X374486Y294957D01*
X374308Y295901D01*
X374322Y295921D01*
X374335Y295950D01*
X374355Y295974D01*
X374387Y296061D01*
X374426Y296144D01*
X374430Y296175D01*
X374441Y296205D01*
X374454Y296372D01*
X374429Y297264D01*
X374423Y297295D01*
X374424Y297327D01*
X374399Y297415D01*
X374382Y297505D01*
X374366Y297533D01*
X374358Y297563D01*
X374270Y297707D01*
X374256Y297726D01*
X374378Y298678D01*
X374377Y298711D01*
X374384Y298797D01*
X374356Y299757D01*
X374373Y299775D01*
X374391Y299801D01*
X374414Y299823D01*
X374459Y299903D01*
X374511Y299979D01*
X374519Y300009D01*
X374535Y300037D01*
X374574Y300200D01*
X374688Y301084D01*
X374687Y301116D01*
X374694Y301147D01*
X374683Y301239D01*
X374680Y301330D01*
X374669Y301360D01*
X374665Y301392D01*
X374601Y301547D01*
X374590Y301568D01*
X374860Y302490D01*
X374864Y302522D01*
X374884Y302607D01*
X375007Y303559D01*
X375026Y303574D01*
X375048Y303597D01*
X375075Y303614D01*
X375131Y303686D01*
X375194Y303753D01*
X375207Y303782D01*
X375227Y303807D01*
X375292Y303962D01*
X375542Y304818D01*
X375546Y304849D01*
X375558Y304879D01*
X375561Y304971D01*
X375573Y305062D01*
X375566Y305093D01*
X375568Y305125D01*
X375529Y305288D01*
X375521Y305311D01*
X375932Y306179D01*
X375941Y306210D01*
X375974Y306290D01*
X376244Y307212D01*
X376266Y307223D01*
X376291Y307243D01*
X376320Y307256D01*
X376387Y307318D01*
X376460Y307375D01*
X376477Y307401D01*
X376500Y307423D01*
X376589Y307566D01*
X376899Y308220D01*
X376916Y308279D01*
X376942Y308335D01*
X376949Y308397D01*
X376966Y308457D01*
X376964Y308518D01*
X376971Y308579D01*
X376970Y308585D01*
X377535Y309570D01*
X377543Y309591D01*
X377563Y309623D01*
X377621Y309745D01*
X377652Y309852D01*
X377686Y309958D01*
X377685Y309970D01*
X377689Y309982D01*
X377684Y310092D01*
X377682Y310204D01*
X377678Y310215D01*
X377678Y310227D01*
X377638Y310331D01*
X377601Y310436D01*
X377593Y310446D01*
X377589Y310457D01*
X377518Y310542D01*
X377450Y310630D01*
X377438Y310639D01*
X377432Y310646D01*
X377409Y310660D01*
X377315Y310730D01*
X323963Y341661D01*
X323898Y341686D01*
X323838Y341719D01*
X323784Y341729D01*
X323733Y341749D01*
X323664Y341751D01*
X323596Y341764D01*
X323542Y341756D01*
X323487Y341758D01*
X323421Y341739D01*
X323353Y341729D01*
X323282Y341698D01*
X323251Y341689D01*
X323233Y341676D01*
X323199Y341661D01*
X270180Y310968D01*
X270096Y310900D01*
X270009Y310833D01*
X270000Y310821D01*
X269989Y310812D01*
X269932Y310720D01*
X269870Y310630D01*
X269867Y310616D01*
X269859Y310604D01*
X269833Y310498D01*
X269804Y310393D01*
X269805Y310379D01*
X269802Y310365D01*
X269811Y310256D01*
X269817Y310147D01*
X269823Y310131D01*
X269824Y310120D01*
X269835Y310093D01*
X269871Y309988D01*
X270185Y309313D01*
X270197Y309295D01*
X270212Y309260D01*
X270605Y308563D01*
X270698Y308448D01*
X270759Y308372D01*
X270759Y308371D01*
X270879Y308294D01*
X270966Y308239D01*
X270966Y308238D01*
X271095Y308206D01*
X271204Y308179D01*
X271205Y308179D01*
X271205Y308178D01*
X271345Y308190D01*
X271449Y308198D01*
X271450Y308198D01*
X271561Y308245D01*
X271676Y308294D01*
X271678Y308296D01*
X271807Y308399D01*
X272664Y309256D01*
X274988Y310218D01*
X277503Y310218D01*
X279827Y309256D01*
X281605Y307477D01*
X282568Y305153D01*
X282568Y302638D01*
X281605Y300314D01*
X279827Y298536D01*
X277503Y297573D01*
X276705Y297573D01*
X276615Y297558D01*
X276524Y297551D01*
X276494Y297538D01*
X276462Y297533D01*
X276381Y297491D01*
X276297Y297455D01*
X276265Y297429D01*
X276245Y297418D01*
X276222Y297395D01*
X276166Y297350D01*
X273330Y294514D01*
X273285Y294451D01*
X273232Y294394D01*
X273213Y294351D01*
X273187Y294314D01*
X273164Y294240D01*
X273132Y294169D01*
X273123Y294108D01*
X273114Y294079D01*
X273115Y294052D01*
X273108Y294003D01*
X273094Y293632D01*
X273077Y293616D01*
X273057Y293590D01*
X273032Y293571D01*
X272982Y293493D01*
X272926Y293421D01*
X272916Y293391D01*
X272898Y293364D01*
X272848Y293204D01*
X272681Y292351D01*
X272680Y292319D01*
X272672Y292288D01*
X272677Y292197D01*
X272674Y292105D01*
X272683Y292074D01*
X272685Y292042D01*
X272729Y291910D01*
X272731Y291902D01*
X272733Y291899D01*
X272738Y291883D01*
X272748Y291862D01*
X272419Y290960D01*
X272413Y290927D01*
X272387Y290844D01*
X272203Y289902D01*
X272183Y289889D01*
X272160Y289867D01*
X272132Y289851D01*
X272071Y289783D01*
X272004Y289720D01*
X271989Y289692D01*
X271967Y289668D01*
X271893Y289518D01*
X271594Y288701D01*
X271589Y288670D01*
X271575Y288641D01*
X271566Y288549D01*
X271549Y288459D01*
X271553Y288428D01*
X271550Y288396D01*
X271578Y288231D01*
X271584Y288207D01*
X271118Y287368D01*
X271107Y287337D01*
X271068Y287259D01*
X270739Y286357D01*
X270717Y286347D01*
X270691Y286329D01*
X270661Y286318D01*
X270589Y286260D01*
X270514Y286209D01*
X270494Y286183D01*
X270470Y286163D01*
X270373Y286027D01*
X269950Y285266D01*
X269939Y285236D01*
X269922Y285210D01*
X269898Y285121D01*
X269867Y285035D01*
X269866Y285003D01*
X269858Y284972D01*
X269860Y284805D01*
X269863Y284781D01*
X269271Y284024D01*
X269255Y283995D01*
X269205Y283925D01*
X268738Y283085D01*
X268715Y283079D01*
X268686Y283065D01*
X268655Y283059D01*
X268576Y283013D01*
X268493Y282974D01*
X268470Y282952D01*
X268442Y282936D01*
X268325Y282816D01*
X267789Y282131D01*
X267773Y282103D01*
X267752Y282080D01*
X267714Y281996D01*
X267670Y281915D01*
X267665Y281884D01*
X267652Y281855D01*
X267627Y281689D01*
X267626Y281665D01*
X266923Y281011D01*
X266903Y280985D01*
X266843Y280923D01*
X266251Y280167D01*
X266227Y280164D01*
X266196Y280155D01*
X266164Y280153D01*
X266079Y280121D01*
X265990Y280095D01*
X265964Y280077D01*
X265935Y280065D01*
X265800Y279965D01*
X265163Y279373D01*
X265144Y279348D01*
X265119Y279328D01*
X265069Y279251D01*
X265013Y279178D01*
X265002Y279148D01*
X264985Y279122D01*
X264935Y278961D01*
X264930Y278938D01*
X264133Y278401D01*
X264109Y278379D01*
X264040Y278327D01*
X263337Y277673D01*
X263313Y277674D01*
X263281Y277670D01*
X263250Y277674D01*
X263160Y277654D01*
X263069Y277643D01*
X263040Y277629D01*
X263009Y277622D01*
X262860Y277545D01*
X262271Y277148D01*
X262184Y277066D01*
X262097Y276986D01*
X262095Y276983D01*
X262092Y276979D01*
X262035Y276874D01*
X261979Y276771D01*
X261978Y276767D01*
X261976Y276763D01*
X261956Y276645D01*
X261935Y276529D01*
X261935Y276524D01*
X261935Y276520D01*
X261953Y276403D01*
X261971Y276286D01*
X261973Y276282D01*
X261973Y276277D01*
X262028Y276173D01*
X262082Y276066D01*
X262085Y276063D01*
X262087Y276059D01*
X262172Y275978D01*
X262258Y275894D01*
X262262Y275891D01*
X262265Y275889D01*
X262278Y275883D01*
X262405Y275813D01*
X262461Y275790D01*
X262490Y275783D01*
X262516Y275769D01*
X262609Y275755D01*
X262700Y275734D01*
X262730Y275736D01*
X262759Y275732D01*
X262926Y275752D01*
X281679Y280144D01*
X281682Y280146D01*
X281686Y280146D01*
X281795Y280193D01*
X281906Y280239D01*
X281909Y280241D01*
X281912Y280243D01*
X282043Y280347D01*
X283339Y281644D01*
X285663Y282606D01*
X288179Y282606D01*
X290503Y281644D01*
X292281Y279865D01*
X293244Y277541D01*
X293244Y275026D01*
X292281Y272702D01*
X290503Y270923D01*
X288179Y269961D01*
X287300Y269961D01*
X287297Y269960D01*
X287293Y269961D01*
X287127Y269941D01*
X265377Y264846D01*
X265374Y264845D01*
X265370Y264845D01*
X265261Y264798D01*
X265150Y264752D01*
X265147Y264750D01*
X265144Y264748D01*
X265013Y264643D01*
X264567Y264197D01*
X262243Y263235D01*
X259727Y263235D01*
X257403Y264197D01*
X255625Y265976D01*
X254662Y268300D01*
X254662Y270815D01*
X255414Y272631D01*
X255435Y272720D01*
X255464Y272808D01*
X255463Y272839D01*
X255471Y272871D01*
X255462Y272962D01*
X255461Y273053D01*
X255451Y273084D01*
X255448Y273115D01*
X255410Y273199D01*
X255380Y273286D01*
X255360Y273311D01*
X255348Y273340D01*
X255285Y273408D01*
X255229Y273480D01*
X255203Y273498D01*
X255181Y273521D01*
X255101Y273566D01*
X255024Y273616D01*
X254994Y273624D01*
X254966Y273640D01*
X254875Y273656D01*
X254787Y273680D01*
X254746Y273679D01*
X254724Y273684D01*
X254691Y273679D01*
X254619Y273678D01*
X253840Y273583D01*
X253808Y273574D01*
X253722Y273559D01*
X252799Y273296D01*
X252778Y273307D01*
X252748Y273318D01*
X252722Y273336D01*
X252633Y273359D01*
X252547Y273391D01*
X252515Y273391D01*
X252484Y273399D01*
X252316Y273398D01*
X251453Y273292D01*
X251422Y273284D01*
X251390Y273282D01*
X251305Y273249D01*
X251217Y273224D01*
X251190Y273206D01*
X251161Y273194D01*
X251026Y273094D01*
X251008Y273078D01*
X250049Y273112D01*
X250016Y273108D01*
X249929Y273107D01*
X248976Y272991D01*
X248957Y273006D01*
X248929Y273021D01*
X248906Y273043D01*
X248822Y273080D01*
X248741Y273124D01*
X248710Y273130D01*
X248681Y273143D01*
X248515Y273167D01*
X247646Y273198D01*
X247614Y273194D01*
X247583Y273198D01*
X247493Y273179D01*
X247402Y273167D01*
X247373Y273154D01*
X247342Y273147D01*
X247193Y273069D01*
X247173Y273056D01*
X246231Y273240D01*
X246198Y273241D01*
X246112Y273253D01*
X245153Y273288D01*
X245136Y273306D01*
X245111Y273325D01*
X245091Y273350D01*
X245014Y273400D01*
X244942Y273456D01*
X244912Y273467D01*
X244885Y273484D01*
X244725Y273534D01*
X243871Y273701D01*
X243839Y273702D01*
X243809Y273711D01*
X243717Y273706D01*
X243625Y273709D01*
X243595Y273699D01*
X243563Y273698D01*
X243404Y273644D01*
X243382Y273634D01*
X242480Y273963D01*
X242448Y273969D01*
X242365Y273995D01*
X241423Y274179D01*
X241409Y274200D01*
X241387Y274223D01*
X241372Y274250D01*
X241304Y274312D01*
X241241Y274379D01*
X241212Y274394D01*
X241189Y274415D01*
X241039Y274490D01*
X240221Y274788D01*
X240190Y274794D01*
X240161Y274807D01*
X240070Y274817D01*
X239980Y274834D01*
X239948Y274829D01*
X239917Y274833D01*
X239751Y274805D01*
X239728Y274798D01*
X238889Y275265D01*
X238858Y275276D01*
X238780Y275314D01*
X237878Y275643D01*
X237868Y275665D01*
X237850Y275692D01*
X237839Y275722D01*
X237781Y275793D01*
X237729Y275869D01*
X237704Y275888D01*
X237684Y275913D01*
X237547Y276010D01*
X236787Y276432D01*
X236757Y276443D01*
X236730Y276461D01*
X236642Y276484D01*
X236555Y276515D01*
X236523Y276516D01*
X236493Y276524D01*
X236325Y276523D01*
X236301Y276520D01*
X235545Y277112D01*
X235516Y277127D01*
X235445Y277178D01*
X234606Y277644D01*
X234599Y277667D01*
X234586Y277696D01*
X234579Y277727D01*
X234534Y277807D01*
X234494Y277890D01*
X234472Y277913D01*
X234457Y277940D01*
X234337Y278058D01*
X233652Y278594D01*
X233624Y278609D01*
X233600Y278631D01*
X233517Y278668D01*
X233436Y278712D01*
X233405Y278718D01*
X233376Y278731D01*
X233210Y278755D01*
X233186Y278756D01*
X232531Y279459D01*
X232505Y279479D01*
X232443Y279540D01*
X231687Y280132D01*
X231684Y280156D01*
X231675Y280186D01*
X231674Y280218D01*
X231641Y280304D01*
X231616Y280392D01*
X231597Y280418D01*
X231586Y280448D01*
X231486Y280582D01*
X230893Y281219D01*
X230868Y281239D01*
X230848Y281264D01*
X230771Y281314D01*
X230699Y281370D01*
X230669Y281380D01*
X230642Y281398D01*
X230482Y281448D01*
X230458Y281452D01*
X229922Y282249D01*
X229900Y282273D01*
X229848Y282343D01*
X229194Y283045D01*
X229194Y283070D01*
X229190Y283101D01*
X229194Y283133D01*
X229175Y283223D01*
X229163Y283314D01*
X229150Y283342D01*
X229143Y283373D01*
X229065Y283522D01*
X228673Y284105D01*
X228631Y284150D01*
X228596Y284201D01*
X228547Y284239D01*
X228504Y284284D01*
X228450Y284313D01*
X228401Y284351D01*
X228396Y284353D01*
X227838Y285341D01*
X227824Y285359D01*
X227806Y285392D01*
X227697Y285555D01*
X227616Y285641D01*
X227538Y285727D01*
X227533Y285730D01*
X227528Y285734D01*
X227425Y285790D01*
X227323Y285846D01*
X227317Y285847D01*
X227312Y285850D01*
X227196Y285870D01*
X227081Y285891D01*
X227075Y285890D01*
X227069Y285891D01*
X226953Y285873D01*
X226838Y285856D01*
X226831Y285853D01*
X226826Y285853D01*
X226810Y285844D01*
X226684Y285789D01*
X173116Y254778D01*
X173079Y254748D01*
X173037Y254726D01*
X172985Y254671D01*
X172926Y254622D01*
X172900Y254582D01*
X172868Y254547D01*
X172836Y254478D01*
X172795Y254414D01*
X172784Y254367D01*
X172764Y254324D01*
X172756Y254249D01*
X172738Y254174D01*
X172742Y254127D01*
X172737Y254080D01*
X172753Y254005D01*
X172760Y253930D01*
X172779Y253886D01*
X172789Y253840D01*
X172828Y253774D01*
X172859Y253704D01*
X172891Y253669D01*
X172915Y253628D01*
X172973Y253579D01*
X173025Y253523D01*
X173066Y253500D01*
X173102Y253469D01*
X173173Y253440D01*
X173240Y253403D01*
X173286Y253394D01*
X173331Y253377D01*
X173460Y253362D01*
X173482Y253358D01*
X173488Y253359D01*
X173497Y253358D01*
X473441Y253358D01*
X473487Y253366D01*
G37*
G36*
X401146Y275722D02*
X401146Y275722D01*
X401179Y275729D01*
X401224Y275730D01*
X404529Y276352D01*
X404559Y276365D01*
X404604Y276373D01*
X407771Y277504D01*
X407799Y277521D01*
X407842Y277536D01*
X410792Y279148D01*
X410818Y279170D01*
X410858Y279191D01*
X413520Y281246D01*
X413538Y281266D01*
X413541Y281268D01*
X413543Y281272D01*
X413578Y281298D01*
X415886Y283743D01*
X415899Y283764D01*
X415904Y283772D01*
X415935Y283805D01*
X417831Y286581D01*
X417842Y286607D01*
X417860Y286628D01*
X417881Y286698D01*
X417909Y286764D01*
X417909Y286792D01*
X417917Y286819D01*
X417908Y286891D01*
X417908Y286963D01*
X417897Y286989D01*
X417894Y287017D01*
X417859Y287080D01*
X417830Y287146D01*
X417810Y287165D01*
X417796Y287190D01*
X417717Y287255D01*
X417687Y287284D01*
X417678Y287287D01*
X417668Y287295D01*
X380495Y308620D01*
X380469Y308628D01*
X380446Y308645D01*
X380375Y308659D01*
X380307Y308682D01*
X380279Y308680D01*
X380251Y308686D01*
X380180Y308672D01*
X380109Y308666D01*
X380084Y308653D01*
X380056Y308648D01*
X379996Y308607D01*
X379932Y308574D01*
X379914Y308552D01*
X379891Y308537D01*
X379832Y308453D01*
X379806Y308420D01*
X379803Y308411D01*
X379796Y308400D01*
X378357Y305361D01*
X378349Y305329D01*
X378329Y305288D01*
X377383Y302062D01*
X377380Y302029D01*
X377367Y301985D01*
X376937Y298650D01*
X376940Y298617D01*
X376933Y298572D01*
X377031Y295211D01*
X377038Y295179D01*
X377039Y295133D01*
X377661Y291829D01*
X377673Y291798D01*
X377681Y291753D01*
X378813Y288587D01*
X378830Y288559D01*
X378845Y288516D01*
X380457Y285565D01*
X380479Y285540D01*
X380500Y285500D01*
X382554Y282838D01*
X382579Y282816D01*
X382607Y282780D01*
X385052Y280472D01*
X385080Y280454D01*
X385113Y280423D01*
X387889Y278526D01*
X387920Y278513D01*
X387957Y278487D01*
X390996Y277048D01*
X391028Y277040D01*
X391069Y277020D01*
X394296Y276074D01*
X394329Y276071D01*
X394373Y276058D01*
X397707Y275628D01*
X397740Y275631D01*
X397786Y275625D01*
X401146Y275722D01*
G37*
G36*
X249874Y275668D02*
X249874Y275668D01*
X249919Y275666D01*
X253235Y276070D01*
X253267Y276080D01*
X253312Y276085D01*
X256524Y277003D01*
X256554Y277018D01*
X256598Y277030D01*
X259627Y278439D01*
X259653Y278459D01*
X259695Y278478D01*
X262466Y280343D01*
X262489Y280367D01*
X262527Y280392D01*
X264973Y282667D01*
X264992Y282694D01*
X265026Y282725D01*
X267085Y285355D01*
X267100Y285385D01*
X267128Y285421D01*
X268751Y288341D01*
X268761Y288372D01*
X268783Y288412D01*
X269929Y291550D01*
X269934Y291583D01*
X269950Y291626D01*
X270591Y294904D01*
X270591Y294937D01*
X270600Y294982D01*
X270720Y298320D01*
X270714Y298353D01*
X270716Y298399D01*
X270313Y301715D01*
X270302Y301746D01*
X270297Y301791D01*
X269379Y305004D01*
X269364Y305033D01*
X269352Y305077D01*
X267943Y308106D01*
X267927Y308129D01*
X267917Y308155D01*
X267868Y308208D01*
X267825Y308266D01*
X267801Y308280D01*
X267782Y308301D01*
X267716Y308330D01*
X267654Y308367D01*
X267626Y308371D01*
X267600Y308382D01*
X267529Y308384D01*
X267457Y308394D01*
X267430Y308386D01*
X267402Y308387D01*
X267305Y308352D01*
X267265Y308341D01*
X267257Y308335D01*
X267245Y308330D01*
X230167Y287401D01*
X230146Y287383D01*
X230120Y287371D01*
X230071Y287318D01*
X230017Y287271D01*
X230004Y287246D01*
X229985Y287225D01*
X229961Y287157D01*
X229929Y287092D01*
X229928Y287064D01*
X229918Y287038D01*
X229922Y286966D01*
X229918Y286894D01*
X229928Y286867D01*
X229930Y286839D01*
X229972Y286746D01*
X229986Y286707D01*
X229993Y286699D01*
X229998Y286688D01*
X231863Y283916D01*
X231887Y283893D01*
X231912Y283855D01*
X234188Y281409D01*
X234215Y281390D01*
X234246Y281357D01*
X236876Y279297D01*
X236906Y279282D01*
X236941Y279254D01*
X239861Y277631D01*
X239893Y277621D01*
X239933Y277599D01*
X243071Y276453D01*
X243104Y276448D01*
X243146Y276432D01*
X246425Y275792D01*
X246458Y275792D01*
X246503Y275783D01*
X249841Y275663D01*
X249874Y275668D01*
G37*
D10*
X323674Y332882D03*
D11*
X458437Y258420D03*
X188988Y258410D03*
D10*
X395241Y291525D03*
X252140Y291582D03*
D12*
X260985Y269557D03*
X286921Y276283D03*
X358978Y271859D03*
X384411Y272161D03*
D13*
X286068Y275433D02*
X260985Y269557D01*
D14*
X286068Y275433D02*
X286921Y276283D01*
D13*
X358978Y271859D02*
X384109Y271859D01*
D14*
X384411Y272161D01*
D13*
X358978Y271859D02*
X355747Y271859D01*
X338044Y289563D02*
X338044Y317106D01*
D12*
X338044Y317106D03*
D13*
X338044Y289563D02*
X355747Y271859D01*
D12*
X363781Y303997D03*
X305128Y261610D03*
X344338Y261610D03*
X362021Y282146D03*
D14*
X385862Y282146D01*
X395241Y291525D01*
D12*
X276245Y303896D03*
D14*
X263932Y291582D01*
X252140Y291582D01*
M02*
