G04 EAGLE Gerber RS-274X export*
G75*
%MOMM*%
%FSLAX34Y34*%
%LPD*%
%INSilkscreen Bottom*%
%IPPOS*%
%AMOC8*
5,1,8,0,0,1.08239X$1,22.5*%
G01*
%ADD10C,0.076200*%
%ADD11C,0.101600*%


D10*
X434812Y263952D02*
X433245Y263952D01*
X433245Y258731D01*
X436378Y258731D01*
X436467Y258733D01*
X436555Y258739D01*
X436643Y258748D01*
X436731Y258761D01*
X436818Y258778D01*
X436904Y258798D01*
X436989Y258823D01*
X437074Y258850D01*
X437157Y258882D01*
X437238Y258916D01*
X437318Y258955D01*
X437396Y258996D01*
X437473Y259041D01*
X437547Y259089D01*
X437620Y259140D01*
X437690Y259194D01*
X437757Y259252D01*
X437823Y259312D01*
X437885Y259374D01*
X437945Y259440D01*
X438003Y259507D01*
X438057Y259577D01*
X438108Y259650D01*
X438156Y259724D01*
X438201Y259801D01*
X438242Y259879D01*
X438281Y259959D01*
X438315Y260040D01*
X438347Y260123D01*
X438374Y260208D01*
X438399Y260293D01*
X438419Y260379D01*
X438436Y260466D01*
X438449Y260554D01*
X438458Y260642D01*
X438464Y260730D01*
X438466Y260819D01*
X438466Y266040D01*
X438464Y266129D01*
X438458Y266217D01*
X438449Y266305D01*
X438436Y266393D01*
X438419Y266480D01*
X438399Y266566D01*
X438374Y266651D01*
X438347Y266736D01*
X438315Y266819D01*
X438281Y266900D01*
X438242Y266980D01*
X438201Y267058D01*
X438156Y267135D01*
X438108Y267209D01*
X438057Y267282D01*
X438003Y267352D01*
X437945Y267419D01*
X437885Y267485D01*
X437823Y267547D01*
X437757Y267607D01*
X437690Y267665D01*
X437620Y267719D01*
X437547Y267770D01*
X437473Y267818D01*
X437396Y267863D01*
X437318Y267904D01*
X437238Y267943D01*
X437157Y267977D01*
X437074Y268009D01*
X436989Y268036D01*
X436904Y268061D01*
X436818Y268081D01*
X436731Y268098D01*
X436643Y268111D01*
X436555Y268120D01*
X436467Y268126D01*
X436378Y268128D01*
X436378Y268129D02*
X433245Y268129D01*
X428713Y268129D02*
X428713Y258731D01*
X423492Y258731D02*
X428713Y268129D01*
X423492Y268129D02*
X423492Y258731D01*
X418959Y258731D02*
X418959Y268129D01*
X416349Y268129D01*
X416249Y268127D01*
X416149Y268121D01*
X416050Y268112D01*
X415950Y268098D01*
X415852Y268081D01*
X415754Y268060D01*
X415657Y268036D01*
X415561Y268007D01*
X415466Y267975D01*
X415373Y267940D01*
X415281Y267901D01*
X415190Y267858D01*
X415102Y267812D01*
X415015Y267762D01*
X414930Y267710D01*
X414847Y267654D01*
X414766Y267595D01*
X414688Y267532D01*
X414612Y267467D01*
X414538Y267399D01*
X414468Y267329D01*
X414400Y267255D01*
X414335Y267179D01*
X414272Y267101D01*
X414213Y267020D01*
X414157Y266937D01*
X414105Y266852D01*
X414055Y266765D01*
X414009Y266677D01*
X413966Y266586D01*
X413927Y266494D01*
X413892Y266401D01*
X413860Y266306D01*
X413831Y266210D01*
X413807Y266113D01*
X413786Y266015D01*
X413769Y265917D01*
X413755Y265817D01*
X413746Y265718D01*
X413740Y265618D01*
X413738Y265518D01*
X413738Y261341D01*
X413740Y261241D01*
X413746Y261141D01*
X413755Y261042D01*
X413769Y260942D01*
X413786Y260844D01*
X413807Y260746D01*
X413831Y260649D01*
X413860Y260553D01*
X413892Y260458D01*
X413927Y260365D01*
X413966Y260273D01*
X414009Y260182D01*
X414055Y260094D01*
X414105Y260007D01*
X414157Y259922D01*
X414213Y259839D01*
X414272Y259758D01*
X414335Y259680D01*
X414400Y259604D01*
X414468Y259530D01*
X414538Y259460D01*
X414612Y259392D01*
X414688Y259327D01*
X414766Y259264D01*
X414847Y259205D01*
X414930Y259149D01*
X415015Y259097D01*
X415102Y259047D01*
X415190Y259001D01*
X415281Y258958D01*
X415373Y258919D01*
X415466Y258884D01*
X415561Y258852D01*
X415657Y258823D01*
X415754Y258799D01*
X415852Y258778D01*
X415950Y258761D01*
X416050Y258747D01*
X416149Y258738D01*
X416249Y258732D01*
X416349Y258730D01*
X416349Y258731D02*
X418959Y258731D01*
X229826Y263597D02*
X228260Y263597D01*
X228260Y258376D01*
X231392Y258376D01*
X231392Y258377D02*
X231481Y258379D01*
X231569Y258385D01*
X231657Y258394D01*
X231745Y258407D01*
X231832Y258424D01*
X231918Y258444D01*
X232003Y258469D01*
X232088Y258496D01*
X232171Y258528D01*
X232252Y258562D01*
X232332Y258601D01*
X232410Y258642D01*
X232487Y258687D01*
X232561Y258735D01*
X232634Y258786D01*
X232704Y258840D01*
X232771Y258898D01*
X232837Y258958D01*
X232899Y259020D01*
X232959Y259086D01*
X233017Y259153D01*
X233071Y259223D01*
X233122Y259296D01*
X233170Y259370D01*
X233215Y259447D01*
X233256Y259525D01*
X233295Y259605D01*
X233329Y259686D01*
X233361Y259769D01*
X233388Y259854D01*
X233413Y259939D01*
X233433Y260025D01*
X233450Y260112D01*
X233463Y260200D01*
X233472Y260288D01*
X233478Y260376D01*
X233480Y260465D01*
X233481Y260465D02*
X233481Y265686D01*
X233480Y265686D02*
X233478Y265775D01*
X233472Y265863D01*
X233463Y265951D01*
X233450Y266039D01*
X233433Y266126D01*
X233413Y266212D01*
X233388Y266297D01*
X233361Y266382D01*
X233329Y266465D01*
X233295Y266546D01*
X233256Y266626D01*
X233215Y266704D01*
X233170Y266781D01*
X233122Y266855D01*
X233071Y266928D01*
X233017Y266998D01*
X232959Y267065D01*
X232899Y267131D01*
X232837Y267193D01*
X232771Y267253D01*
X232704Y267311D01*
X232634Y267365D01*
X232561Y267416D01*
X232487Y267464D01*
X232410Y267509D01*
X232332Y267550D01*
X232252Y267589D01*
X232171Y267623D01*
X232088Y267655D01*
X232003Y267682D01*
X231918Y267707D01*
X231832Y267727D01*
X231745Y267744D01*
X231657Y267757D01*
X231569Y267766D01*
X231481Y267772D01*
X231392Y267774D01*
X228260Y267774D01*
X223727Y267774D02*
X223727Y258376D01*
X218506Y258376D02*
X223727Y267774D01*
X218506Y267774D02*
X218506Y258376D01*
X213974Y258376D02*
X213974Y267774D01*
X211363Y267774D01*
X211363Y267775D02*
X211263Y267773D01*
X211163Y267767D01*
X211064Y267758D01*
X210964Y267744D01*
X210866Y267727D01*
X210768Y267706D01*
X210671Y267682D01*
X210575Y267653D01*
X210480Y267621D01*
X210387Y267586D01*
X210295Y267547D01*
X210204Y267504D01*
X210116Y267458D01*
X210029Y267408D01*
X209944Y267356D01*
X209861Y267300D01*
X209780Y267241D01*
X209702Y267178D01*
X209626Y267113D01*
X209552Y267045D01*
X209482Y266975D01*
X209414Y266901D01*
X209349Y266825D01*
X209286Y266747D01*
X209227Y266666D01*
X209171Y266583D01*
X209119Y266498D01*
X209069Y266411D01*
X209023Y266323D01*
X208980Y266232D01*
X208941Y266140D01*
X208906Y266047D01*
X208874Y265952D01*
X208845Y265856D01*
X208821Y265759D01*
X208800Y265661D01*
X208783Y265563D01*
X208769Y265463D01*
X208760Y265364D01*
X208754Y265264D01*
X208752Y265164D01*
X208752Y260987D01*
X208754Y260887D01*
X208760Y260787D01*
X208769Y260688D01*
X208783Y260588D01*
X208800Y260490D01*
X208821Y260392D01*
X208845Y260295D01*
X208874Y260199D01*
X208906Y260104D01*
X208941Y260011D01*
X208980Y259919D01*
X209023Y259828D01*
X209069Y259740D01*
X209119Y259653D01*
X209171Y259568D01*
X209227Y259485D01*
X209286Y259404D01*
X209349Y259326D01*
X209414Y259250D01*
X209482Y259176D01*
X209552Y259106D01*
X209626Y259038D01*
X209702Y258973D01*
X209780Y258910D01*
X209861Y258851D01*
X209944Y258795D01*
X210029Y258743D01*
X210116Y258693D01*
X210204Y258647D01*
X210295Y258604D01*
X210387Y258565D01*
X210480Y258530D01*
X210575Y258498D01*
X210671Y258469D01*
X210768Y258445D01*
X210866Y258424D01*
X210964Y258407D01*
X211064Y258393D01*
X211163Y258384D01*
X211263Y258378D01*
X211363Y258376D01*
X213974Y258376D01*
D11*
X263106Y264005D02*
X263106Y275689D01*
X259860Y275689D01*
X259747Y275687D01*
X259634Y275681D01*
X259521Y275671D01*
X259408Y275657D01*
X259296Y275640D01*
X259185Y275618D01*
X259075Y275593D01*
X258965Y275563D01*
X258857Y275530D01*
X258750Y275493D01*
X258644Y275453D01*
X258540Y275408D01*
X258437Y275360D01*
X258336Y275309D01*
X258237Y275254D01*
X258140Y275196D01*
X258045Y275134D01*
X257952Y275069D01*
X257862Y275001D01*
X257774Y274930D01*
X257688Y274855D01*
X257605Y274778D01*
X257525Y274698D01*
X257448Y274615D01*
X257373Y274529D01*
X257302Y274441D01*
X257234Y274351D01*
X257169Y274258D01*
X257107Y274163D01*
X257049Y274066D01*
X256994Y273967D01*
X256943Y273866D01*
X256895Y273763D01*
X256850Y273659D01*
X256810Y273553D01*
X256773Y273446D01*
X256740Y273338D01*
X256710Y273228D01*
X256685Y273118D01*
X256663Y273007D01*
X256646Y272895D01*
X256632Y272782D01*
X256622Y272669D01*
X256616Y272556D01*
X256614Y272443D01*
X256616Y272330D01*
X256622Y272217D01*
X256632Y272104D01*
X256646Y271991D01*
X256663Y271879D01*
X256685Y271768D01*
X256710Y271658D01*
X256740Y271548D01*
X256773Y271440D01*
X256810Y271333D01*
X256850Y271227D01*
X256895Y271123D01*
X256943Y271020D01*
X256994Y270919D01*
X257049Y270820D01*
X257107Y270723D01*
X257169Y270628D01*
X257234Y270535D01*
X257302Y270445D01*
X257373Y270357D01*
X257448Y270271D01*
X257525Y270188D01*
X257605Y270108D01*
X257688Y270031D01*
X257774Y269956D01*
X257862Y269885D01*
X257952Y269817D01*
X258045Y269752D01*
X258140Y269690D01*
X258237Y269632D01*
X258336Y269577D01*
X258437Y269526D01*
X258540Y269478D01*
X258644Y269433D01*
X258750Y269393D01*
X258857Y269356D01*
X258965Y269323D01*
X259075Y269293D01*
X259185Y269268D01*
X259296Y269246D01*
X259408Y269229D01*
X259521Y269215D01*
X259634Y269205D01*
X259747Y269199D01*
X259860Y269197D01*
X259860Y269198D02*
X263106Y269198D01*
X252226Y270496D02*
X248332Y270496D01*
X248233Y270494D01*
X248133Y270488D01*
X248034Y270479D01*
X247936Y270466D01*
X247838Y270449D01*
X247740Y270428D01*
X247644Y270403D01*
X247549Y270375D01*
X247455Y270343D01*
X247362Y270308D01*
X247270Y270269D01*
X247180Y270226D01*
X247092Y270181D01*
X247005Y270131D01*
X246921Y270079D01*
X246838Y270023D01*
X246758Y269965D01*
X246680Y269903D01*
X246605Y269838D01*
X246532Y269770D01*
X246462Y269700D01*
X246394Y269627D01*
X246329Y269552D01*
X246267Y269474D01*
X246209Y269394D01*
X246153Y269311D01*
X246101Y269227D01*
X246051Y269140D01*
X246006Y269052D01*
X245963Y268962D01*
X245924Y268870D01*
X245889Y268777D01*
X245857Y268683D01*
X245829Y268588D01*
X245804Y268492D01*
X245783Y268394D01*
X245766Y268296D01*
X245753Y268198D01*
X245744Y268099D01*
X245738Y267999D01*
X245736Y267900D01*
X245735Y267900D02*
X245735Y267251D01*
X245737Y267138D01*
X245743Y267025D01*
X245753Y266912D01*
X245767Y266799D01*
X245784Y266687D01*
X245806Y266576D01*
X245831Y266466D01*
X245861Y266356D01*
X245894Y266248D01*
X245931Y266141D01*
X245971Y266035D01*
X246016Y265931D01*
X246064Y265828D01*
X246115Y265727D01*
X246170Y265628D01*
X246228Y265531D01*
X246290Y265436D01*
X246355Y265343D01*
X246423Y265253D01*
X246494Y265165D01*
X246569Y265079D01*
X246646Y264996D01*
X246726Y264916D01*
X246809Y264839D01*
X246895Y264764D01*
X246983Y264693D01*
X247073Y264625D01*
X247166Y264560D01*
X247261Y264498D01*
X247358Y264440D01*
X247457Y264385D01*
X247558Y264334D01*
X247661Y264286D01*
X247765Y264241D01*
X247871Y264201D01*
X247978Y264164D01*
X248086Y264131D01*
X248196Y264101D01*
X248306Y264076D01*
X248417Y264054D01*
X248529Y264037D01*
X248642Y264023D01*
X248755Y264013D01*
X248868Y264007D01*
X248981Y264005D01*
X249094Y264007D01*
X249207Y264013D01*
X249320Y264023D01*
X249433Y264037D01*
X249545Y264054D01*
X249656Y264076D01*
X249766Y264101D01*
X249876Y264131D01*
X249984Y264164D01*
X250091Y264201D01*
X250197Y264241D01*
X250301Y264286D01*
X250404Y264334D01*
X250505Y264385D01*
X250604Y264440D01*
X250701Y264498D01*
X250796Y264560D01*
X250889Y264625D01*
X250979Y264693D01*
X251067Y264764D01*
X251153Y264839D01*
X251236Y264916D01*
X251316Y264996D01*
X251393Y265079D01*
X251468Y265165D01*
X251539Y265253D01*
X251607Y265343D01*
X251672Y265436D01*
X251734Y265531D01*
X251792Y265628D01*
X251847Y265727D01*
X251898Y265828D01*
X251946Y265931D01*
X251991Y266035D01*
X252031Y266141D01*
X252068Y266248D01*
X252101Y266356D01*
X252131Y266466D01*
X252156Y266576D01*
X252178Y266687D01*
X252195Y266799D01*
X252209Y266912D01*
X252219Y267025D01*
X252225Y267138D01*
X252227Y267251D01*
X252226Y267251D02*
X252226Y270496D01*
X252224Y270639D01*
X252218Y270782D01*
X252208Y270925D01*
X252194Y271067D01*
X252177Y271209D01*
X252155Y271351D01*
X252130Y271492D01*
X252100Y271632D01*
X252067Y271771D01*
X252030Y271909D01*
X251989Y272046D01*
X251945Y272182D01*
X251896Y272317D01*
X251844Y272450D01*
X251789Y272582D01*
X251729Y272712D01*
X251666Y272841D01*
X251600Y272968D01*
X251530Y273093D01*
X251457Y273215D01*
X251380Y273336D01*
X251300Y273455D01*
X251217Y273571D01*
X251131Y273686D01*
X251042Y273797D01*
X250949Y273907D01*
X250854Y274013D01*
X250755Y274117D01*
X250654Y274218D01*
X250550Y274317D01*
X250444Y274412D01*
X250334Y274505D01*
X250223Y274594D01*
X250108Y274680D01*
X249992Y274763D01*
X249873Y274843D01*
X249752Y274920D01*
X249630Y274993D01*
X249505Y275063D01*
X249378Y275129D01*
X249249Y275192D01*
X249119Y275252D01*
X248987Y275307D01*
X248854Y275359D01*
X248719Y275408D01*
X248583Y275452D01*
X248446Y275493D01*
X248308Y275530D01*
X248169Y275563D01*
X248029Y275593D01*
X247888Y275618D01*
X247746Y275640D01*
X247604Y275657D01*
X247462Y275671D01*
X247319Y275681D01*
X247176Y275687D01*
X247033Y275689D01*
X400842Y275641D02*
X400842Y263957D01*
X400842Y275641D02*
X397597Y275641D01*
X397484Y275639D01*
X397371Y275633D01*
X397258Y275623D01*
X397145Y275609D01*
X397033Y275592D01*
X396922Y275570D01*
X396812Y275545D01*
X396702Y275515D01*
X396594Y275482D01*
X396487Y275445D01*
X396381Y275405D01*
X396277Y275360D01*
X396174Y275312D01*
X396073Y275261D01*
X395974Y275206D01*
X395877Y275148D01*
X395782Y275086D01*
X395689Y275021D01*
X395599Y274953D01*
X395511Y274882D01*
X395425Y274807D01*
X395342Y274730D01*
X395262Y274650D01*
X395185Y274567D01*
X395110Y274481D01*
X395039Y274393D01*
X394971Y274303D01*
X394906Y274210D01*
X394844Y274115D01*
X394786Y274018D01*
X394731Y273919D01*
X394680Y273818D01*
X394632Y273715D01*
X394587Y273611D01*
X394547Y273505D01*
X394510Y273398D01*
X394477Y273290D01*
X394447Y273180D01*
X394422Y273070D01*
X394400Y272959D01*
X394383Y272847D01*
X394369Y272734D01*
X394359Y272621D01*
X394353Y272508D01*
X394351Y272395D01*
X394353Y272282D01*
X394359Y272169D01*
X394369Y272056D01*
X394383Y271943D01*
X394400Y271831D01*
X394422Y271720D01*
X394447Y271610D01*
X394477Y271500D01*
X394510Y271392D01*
X394547Y271285D01*
X394587Y271179D01*
X394632Y271075D01*
X394680Y270972D01*
X394731Y270871D01*
X394786Y270772D01*
X394844Y270675D01*
X394906Y270580D01*
X394971Y270487D01*
X395039Y270397D01*
X395110Y270309D01*
X395185Y270223D01*
X395262Y270140D01*
X395342Y270060D01*
X395425Y269983D01*
X395511Y269908D01*
X395599Y269837D01*
X395689Y269769D01*
X395782Y269704D01*
X395877Y269642D01*
X395974Y269584D01*
X396073Y269529D01*
X396174Y269478D01*
X396277Y269430D01*
X396381Y269385D01*
X396487Y269345D01*
X396594Y269308D01*
X396702Y269275D01*
X396812Y269245D01*
X396922Y269220D01*
X397033Y269198D01*
X397145Y269181D01*
X397258Y269167D01*
X397371Y269157D01*
X397484Y269151D01*
X397597Y269149D01*
X397597Y269150D02*
X400842Y269150D01*
X389963Y273044D02*
X386717Y275641D01*
X386717Y263957D01*
X383472Y263957D02*
X389963Y263957D01*
D10*
X355405Y290339D02*
X355405Y291567D01*
X351313Y291567D01*
X351313Y289112D01*
X351312Y289112D02*
X351314Y289034D01*
X351319Y288956D01*
X351329Y288879D01*
X351342Y288802D01*
X351358Y288726D01*
X351378Y288651D01*
X351402Y288577D01*
X351429Y288504D01*
X351460Y288432D01*
X351494Y288362D01*
X351531Y288294D01*
X351572Y288227D01*
X351616Y288162D01*
X351662Y288100D01*
X351712Y288040D01*
X351764Y287982D01*
X351819Y287927D01*
X351877Y287875D01*
X351937Y287825D01*
X351999Y287779D01*
X352064Y287735D01*
X352131Y287694D01*
X352199Y287657D01*
X352269Y287623D01*
X352341Y287592D01*
X352414Y287565D01*
X352488Y287541D01*
X352563Y287521D01*
X352639Y287505D01*
X352716Y287492D01*
X352793Y287482D01*
X352871Y287477D01*
X352949Y287475D01*
X357042Y287475D01*
X357120Y287477D01*
X357198Y287482D01*
X357275Y287492D01*
X357352Y287505D01*
X357428Y287521D01*
X357503Y287541D01*
X357577Y287565D01*
X357650Y287592D01*
X357722Y287623D01*
X357792Y287657D01*
X357861Y287694D01*
X357927Y287735D01*
X357992Y287779D01*
X358054Y287825D01*
X358114Y287875D01*
X358172Y287927D01*
X358227Y287982D01*
X358279Y288040D01*
X358329Y288100D01*
X358375Y288162D01*
X358419Y288227D01*
X358460Y288294D01*
X358497Y288362D01*
X358531Y288432D01*
X358562Y288504D01*
X358589Y288577D01*
X358613Y288651D01*
X358633Y288726D01*
X358649Y288802D01*
X358662Y288879D01*
X358672Y288956D01*
X358677Y289034D01*
X358679Y289112D01*
X358679Y291567D01*
X358679Y295278D02*
X351313Y295278D01*
X351313Y299370D02*
X358679Y295278D01*
X358679Y299370D02*
X351313Y299370D01*
X351313Y303080D02*
X358679Y303080D01*
X358679Y305126D01*
X358678Y305126D02*
X358676Y305215D01*
X358670Y305304D01*
X358660Y305393D01*
X358647Y305481D01*
X358630Y305569D01*
X358608Y305656D01*
X358583Y305741D01*
X358555Y305826D01*
X358522Y305909D01*
X358486Y305991D01*
X358447Y306071D01*
X358404Y306149D01*
X358358Y306225D01*
X358308Y306300D01*
X358255Y306372D01*
X358199Y306441D01*
X358140Y306508D01*
X358079Y306573D01*
X358014Y306634D01*
X357947Y306693D01*
X357878Y306749D01*
X357806Y306802D01*
X357731Y306852D01*
X357655Y306898D01*
X357577Y306941D01*
X357497Y306980D01*
X357415Y307016D01*
X357332Y307049D01*
X357247Y307077D01*
X357162Y307102D01*
X357075Y307124D01*
X356987Y307141D01*
X356899Y307154D01*
X356810Y307164D01*
X356721Y307170D01*
X356632Y307172D01*
X356632Y307173D02*
X353359Y307173D01*
X353359Y307172D02*
X353270Y307170D01*
X353181Y307164D01*
X353092Y307154D01*
X353004Y307141D01*
X352916Y307124D01*
X352829Y307102D01*
X352744Y307077D01*
X352659Y307049D01*
X352576Y307016D01*
X352494Y306980D01*
X352414Y306941D01*
X352336Y306898D01*
X352260Y306852D01*
X352185Y306802D01*
X352113Y306749D01*
X352044Y306693D01*
X351977Y306634D01*
X351912Y306573D01*
X351851Y306508D01*
X351792Y306441D01*
X351736Y306372D01*
X351683Y306300D01*
X351633Y306225D01*
X351587Y306149D01*
X351544Y306071D01*
X351505Y305991D01*
X351469Y305909D01*
X351436Y305826D01*
X351408Y305741D01*
X351383Y305656D01*
X351361Y305569D01*
X351344Y305481D01*
X351331Y305393D01*
X351321Y305304D01*
X351315Y305215D01*
X351313Y305126D01*
X351313Y303080D01*
X339060Y289818D02*
X339060Y287772D01*
X339060Y289818D02*
X339062Y289907D01*
X339068Y289996D01*
X339078Y290085D01*
X339091Y290173D01*
X339108Y290261D01*
X339130Y290348D01*
X339155Y290433D01*
X339183Y290518D01*
X339216Y290601D01*
X339252Y290683D01*
X339291Y290763D01*
X339334Y290841D01*
X339380Y290917D01*
X339430Y290992D01*
X339483Y291064D01*
X339539Y291133D01*
X339598Y291200D01*
X339659Y291265D01*
X339724Y291326D01*
X339791Y291385D01*
X339860Y291441D01*
X339932Y291494D01*
X340007Y291544D01*
X340083Y291590D01*
X340161Y291633D01*
X340241Y291672D01*
X340323Y291708D01*
X340406Y291741D01*
X340491Y291769D01*
X340576Y291794D01*
X340663Y291816D01*
X340751Y291833D01*
X340839Y291846D01*
X340928Y291856D01*
X341017Y291862D01*
X341106Y291864D01*
X341195Y291862D01*
X341284Y291856D01*
X341373Y291846D01*
X341461Y291833D01*
X341549Y291816D01*
X341636Y291794D01*
X341721Y291769D01*
X341806Y291741D01*
X341889Y291708D01*
X341971Y291672D01*
X342051Y291633D01*
X342129Y291590D01*
X342205Y291544D01*
X342280Y291494D01*
X342352Y291441D01*
X342421Y291385D01*
X342488Y291326D01*
X342553Y291265D01*
X342614Y291200D01*
X342673Y291133D01*
X342729Y291064D01*
X342782Y290992D01*
X342832Y290917D01*
X342878Y290841D01*
X342921Y290763D01*
X342960Y290683D01*
X342996Y290601D01*
X343029Y290518D01*
X343057Y290433D01*
X343082Y290348D01*
X343104Y290261D01*
X343121Y290173D01*
X343134Y290085D01*
X343144Y289996D01*
X343150Y289907D01*
X343152Y289818D01*
X346426Y290227D02*
X346426Y287772D01*
X346426Y290227D02*
X346424Y290306D01*
X346418Y290385D01*
X346409Y290464D01*
X346396Y290542D01*
X346378Y290619D01*
X346358Y290695D01*
X346333Y290770D01*
X346305Y290844D01*
X346274Y290917D01*
X346238Y290988D01*
X346200Y291057D01*
X346158Y291124D01*
X346113Y291189D01*
X346065Y291252D01*
X346014Y291313D01*
X345960Y291370D01*
X345904Y291426D01*
X345845Y291478D01*
X345783Y291528D01*
X345719Y291574D01*
X345653Y291618D01*
X345585Y291658D01*
X345515Y291694D01*
X345443Y291728D01*
X345369Y291758D01*
X345295Y291784D01*
X345219Y291807D01*
X345142Y291825D01*
X345065Y291841D01*
X344986Y291852D01*
X344908Y291860D01*
X344829Y291864D01*
X344749Y291864D01*
X344670Y291860D01*
X344592Y291852D01*
X344513Y291841D01*
X344436Y291825D01*
X344359Y291807D01*
X344283Y291784D01*
X344209Y291758D01*
X344135Y291728D01*
X344063Y291694D01*
X343993Y291658D01*
X343925Y291618D01*
X343859Y291574D01*
X343795Y291528D01*
X343733Y291478D01*
X343674Y291426D01*
X343618Y291370D01*
X343564Y291313D01*
X343513Y291252D01*
X343465Y291189D01*
X343420Y291124D01*
X343378Y291057D01*
X343340Y290988D01*
X343304Y290917D01*
X343273Y290844D01*
X343245Y290770D01*
X343220Y290695D01*
X343200Y290619D01*
X343182Y290542D01*
X343169Y290464D01*
X343160Y290385D01*
X343154Y290306D01*
X343152Y290227D01*
X343152Y288590D01*
X346426Y294678D02*
X339060Y297133D01*
X346426Y299588D01*
X339060Y302402D02*
X339060Y304448D01*
X339062Y304537D01*
X339068Y304626D01*
X339078Y304715D01*
X339091Y304803D01*
X339108Y304891D01*
X339130Y304978D01*
X339155Y305063D01*
X339183Y305148D01*
X339216Y305231D01*
X339252Y305313D01*
X339291Y305393D01*
X339334Y305471D01*
X339380Y305547D01*
X339430Y305622D01*
X339483Y305694D01*
X339539Y305763D01*
X339598Y305830D01*
X339659Y305895D01*
X339724Y305956D01*
X339791Y306015D01*
X339860Y306071D01*
X339932Y306124D01*
X340007Y306174D01*
X340083Y306220D01*
X340161Y306263D01*
X340241Y306302D01*
X340323Y306338D01*
X340406Y306371D01*
X340491Y306399D01*
X340576Y306424D01*
X340663Y306446D01*
X340751Y306463D01*
X340839Y306476D01*
X340928Y306486D01*
X341017Y306492D01*
X341106Y306494D01*
X341195Y306492D01*
X341284Y306486D01*
X341373Y306476D01*
X341461Y306463D01*
X341549Y306446D01*
X341636Y306424D01*
X341721Y306399D01*
X341806Y306371D01*
X341889Y306338D01*
X341971Y306302D01*
X342051Y306263D01*
X342129Y306220D01*
X342205Y306174D01*
X342280Y306124D01*
X342352Y306071D01*
X342421Y306015D01*
X342488Y305956D01*
X342553Y305895D01*
X342614Y305830D01*
X342673Y305763D01*
X342729Y305694D01*
X342782Y305622D01*
X342832Y305547D01*
X342878Y305471D01*
X342921Y305393D01*
X342960Y305313D01*
X342996Y305231D01*
X343029Y305148D01*
X343057Y305063D01*
X343082Y304978D01*
X343104Y304891D01*
X343121Y304803D01*
X343134Y304715D01*
X343144Y304626D01*
X343150Y304537D01*
X343152Y304448D01*
X346426Y304858D02*
X346426Y302402D01*
X346426Y304858D02*
X346424Y304937D01*
X346418Y305016D01*
X346409Y305095D01*
X346396Y305173D01*
X346378Y305250D01*
X346358Y305326D01*
X346333Y305401D01*
X346305Y305475D01*
X346274Y305548D01*
X346238Y305619D01*
X346200Y305688D01*
X346158Y305755D01*
X346113Y305820D01*
X346065Y305883D01*
X346014Y305944D01*
X345960Y306001D01*
X345904Y306057D01*
X345845Y306109D01*
X345783Y306159D01*
X345719Y306205D01*
X345653Y306249D01*
X345585Y306289D01*
X345515Y306325D01*
X345443Y306359D01*
X345369Y306389D01*
X345295Y306415D01*
X345219Y306438D01*
X345142Y306456D01*
X345065Y306472D01*
X344986Y306483D01*
X344908Y306491D01*
X344829Y306495D01*
X344749Y306495D01*
X344670Y306491D01*
X344592Y306483D01*
X344513Y306472D01*
X344436Y306456D01*
X344359Y306438D01*
X344283Y306415D01*
X344209Y306389D01*
X344135Y306359D01*
X344063Y306325D01*
X343993Y306289D01*
X343925Y306249D01*
X343859Y306205D01*
X343795Y306159D01*
X343733Y306109D01*
X343674Y306057D01*
X343618Y306001D01*
X343564Y305944D01*
X343513Y305883D01*
X343465Y305820D01*
X343420Y305755D01*
X343378Y305688D01*
X343340Y305619D01*
X343304Y305548D01*
X343273Y305475D01*
X343245Y305401D01*
X343220Y305326D01*
X343200Y305250D01*
X343182Y305173D01*
X343169Y305095D01*
X343160Y305016D01*
X343154Y304937D01*
X343152Y304858D01*
X343152Y303221D01*
X308135Y287656D02*
X300769Y287656D01*
X308135Y287656D02*
X308135Y289702D01*
X308133Y289791D01*
X308127Y289880D01*
X308117Y289969D01*
X308104Y290057D01*
X308087Y290145D01*
X308065Y290232D01*
X308040Y290317D01*
X308012Y290402D01*
X307979Y290485D01*
X307943Y290567D01*
X307904Y290647D01*
X307861Y290725D01*
X307815Y290801D01*
X307765Y290876D01*
X307712Y290948D01*
X307656Y291017D01*
X307597Y291084D01*
X307536Y291149D01*
X307471Y291210D01*
X307404Y291269D01*
X307335Y291325D01*
X307263Y291378D01*
X307188Y291428D01*
X307112Y291474D01*
X307034Y291517D01*
X306954Y291556D01*
X306872Y291592D01*
X306789Y291625D01*
X306704Y291653D01*
X306619Y291678D01*
X306532Y291700D01*
X306444Y291717D01*
X306356Y291730D01*
X306267Y291740D01*
X306178Y291746D01*
X306089Y291748D01*
X306000Y291746D01*
X305911Y291740D01*
X305822Y291730D01*
X305734Y291717D01*
X305646Y291700D01*
X305559Y291678D01*
X305474Y291653D01*
X305389Y291625D01*
X305306Y291592D01*
X305224Y291556D01*
X305144Y291517D01*
X305066Y291474D01*
X304990Y291428D01*
X304915Y291378D01*
X304843Y291325D01*
X304774Y291269D01*
X304707Y291210D01*
X304642Y291149D01*
X304581Y291084D01*
X304522Y291017D01*
X304466Y290948D01*
X304413Y290876D01*
X304363Y290801D01*
X304317Y290725D01*
X304274Y290647D01*
X304235Y290567D01*
X304199Y290485D01*
X304166Y290402D01*
X304138Y290317D01*
X304113Y290232D01*
X304091Y290145D01*
X304074Y290057D01*
X304061Y289969D01*
X304051Y289880D01*
X304045Y289791D01*
X304043Y289702D01*
X304043Y287656D01*
X304861Y294609D02*
X304861Y297065D01*
X304859Y297143D01*
X304854Y297221D01*
X304844Y297298D01*
X304831Y297375D01*
X304815Y297451D01*
X304795Y297526D01*
X304771Y297600D01*
X304744Y297673D01*
X304713Y297745D01*
X304679Y297815D01*
X304642Y297884D01*
X304601Y297950D01*
X304557Y298015D01*
X304511Y298077D01*
X304461Y298137D01*
X304409Y298195D01*
X304354Y298250D01*
X304296Y298302D01*
X304236Y298352D01*
X304174Y298398D01*
X304109Y298442D01*
X304043Y298483D01*
X303974Y298520D01*
X303904Y298554D01*
X303832Y298585D01*
X303759Y298612D01*
X303685Y298636D01*
X303610Y298656D01*
X303534Y298672D01*
X303457Y298685D01*
X303380Y298695D01*
X303302Y298700D01*
X303224Y298702D01*
X303224Y298701D02*
X302815Y298701D01*
X302726Y298699D01*
X302637Y298693D01*
X302548Y298683D01*
X302460Y298670D01*
X302372Y298653D01*
X302285Y298631D01*
X302200Y298606D01*
X302115Y298578D01*
X302032Y298545D01*
X301950Y298509D01*
X301870Y298470D01*
X301792Y298427D01*
X301716Y298381D01*
X301641Y298331D01*
X301569Y298278D01*
X301500Y298222D01*
X301433Y298163D01*
X301368Y298102D01*
X301307Y298037D01*
X301248Y297970D01*
X301192Y297901D01*
X301139Y297829D01*
X301089Y297754D01*
X301043Y297678D01*
X301000Y297600D01*
X300961Y297520D01*
X300925Y297438D01*
X300892Y297355D01*
X300864Y297270D01*
X300839Y297185D01*
X300817Y297098D01*
X300800Y297010D01*
X300787Y296922D01*
X300777Y296833D01*
X300771Y296744D01*
X300769Y296655D01*
X300771Y296566D01*
X300777Y296477D01*
X300787Y296388D01*
X300800Y296300D01*
X300817Y296212D01*
X300839Y296125D01*
X300864Y296040D01*
X300892Y295955D01*
X300925Y295872D01*
X300961Y295790D01*
X301000Y295710D01*
X301043Y295632D01*
X301089Y295556D01*
X301139Y295481D01*
X301192Y295409D01*
X301248Y295340D01*
X301307Y295273D01*
X301368Y295208D01*
X301433Y295147D01*
X301500Y295088D01*
X301569Y295032D01*
X301641Y294979D01*
X301716Y294929D01*
X301792Y294883D01*
X301870Y294840D01*
X301950Y294801D01*
X302032Y294765D01*
X302115Y294732D01*
X302200Y294704D01*
X302285Y294679D01*
X302372Y294657D01*
X302460Y294640D01*
X302548Y294627D01*
X302637Y294617D01*
X302726Y294611D01*
X302815Y294609D01*
X304861Y294609D01*
X304975Y294611D01*
X305089Y294617D01*
X305203Y294627D01*
X305317Y294641D01*
X305430Y294659D01*
X305542Y294681D01*
X305653Y294706D01*
X305763Y294736D01*
X305873Y294769D01*
X305981Y294806D01*
X306087Y294847D01*
X306193Y294892D01*
X306296Y294940D01*
X306398Y294992D01*
X306498Y295048D01*
X306596Y295106D01*
X306692Y295169D01*
X306785Y295234D01*
X306877Y295303D01*
X306965Y295375D01*
X307052Y295450D01*
X307135Y295528D01*
X307216Y295609D01*
X307294Y295692D01*
X307369Y295779D01*
X307441Y295867D01*
X307510Y295959D01*
X307575Y296052D01*
X307637Y296148D01*
X307696Y296246D01*
X307752Y296346D01*
X307804Y296448D01*
X307852Y296551D01*
X307897Y296657D01*
X307938Y296763D01*
X307975Y296871D01*
X308008Y296981D01*
X308038Y297091D01*
X308063Y297202D01*
X308085Y297314D01*
X308103Y297427D01*
X308117Y297541D01*
X308127Y297655D01*
X308133Y297769D01*
X308135Y297883D01*
X308135Y302168D02*
X302815Y302168D01*
X302726Y302170D01*
X302637Y302176D01*
X302548Y302186D01*
X302460Y302199D01*
X302372Y302216D01*
X302285Y302238D01*
X302200Y302263D01*
X302115Y302291D01*
X302032Y302324D01*
X301950Y302360D01*
X301870Y302399D01*
X301792Y302442D01*
X301716Y302488D01*
X301641Y302538D01*
X301569Y302591D01*
X301500Y302647D01*
X301433Y302706D01*
X301368Y302767D01*
X301307Y302832D01*
X301248Y302899D01*
X301192Y302968D01*
X301139Y303040D01*
X301089Y303115D01*
X301043Y303191D01*
X301000Y303269D01*
X300961Y303349D01*
X300925Y303431D01*
X300892Y303514D01*
X300864Y303599D01*
X300839Y303684D01*
X300817Y303771D01*
X300800Y303859D01*
X300787Y303947D01*
X300777Y304036D01*
X300771Y304125D01*
X300769Y304214D01*
X300771Y304303D01*
X300777Y304392D01*
X300787Y304481D01*
X300800Y304569D01*
X300817Y304657D01*
X300839Y304744D01*
X300864Y304829D01*
X300892Y304914D01*
X300925Y304997D01*
X300961Y305079D01*
X301000Y305159D01*
X301043Y305237D01*
X301089Y305313D01*
X301139Y305388D01*
X301192Y305460D01*
X301248Y305529D01*
X301307Y305596D01*
X301368Y305661D01*
X301433Y305722D01*
X301500Y305781D01*
X301569Y305837D01*
X301641Y305890D01*
X301716Y305940D01*
X301792Y305986D01*
X301870Y306029D01*
X301950Y306068D01*
X302032Y306104D01*
X302115Y306137D01*
X302200Y306165D01*
X302285Y306190D01*
X302372Y306212D01*
X302460Y306229D01*
X302548Y306242D01*
X302637Y306252D01*
X302726Y306258D01*
X302815Y306260D01*
X308135Y306260D01*
X295981Y287607D02*
X288615Y287607D01*
X295981Y287607D02*
X295981Y289653D01*
X295979Y289742D01*
X295973Y289831D01*
X295963Y289920D01*
X295950Y290008D01*
X295933Y290096D01*
X295911Y290183D01*
X295886Y290268D01*
X295858Y290353D01*
X295825Y290436D01*
X295789Y290518D01*
X295750Y290598D01*
X295707Y290676D01*
X295661Y290752D01*
X295611Y290827D01*
X295558Y290899D01*
X295502Y290968D01*
X295443Y291035D01*
X295382Y291100D01*
X295317Y291161D01*
X295250Y291220D01*
X295181Y291276D01*
X295109Y291329D01*
X295034Y291379D01*
X294958Y291425D01*
X294880Y291468D01*
X294800Y291507D01*
X294718Y291543D01*
X294635Y291576D01*
X294550Y291604D01*
X294465Y291629D01*
X294378Y291651D01*
X294290Y291668D01*
X294202Y291681D01*
X294113Y291691D01*
X294024Y291697D01*
X293935Y291699D01*
X293846Y291697D01*
X293757Y291691D01*
X293668Y291681D01*
X293580Y291668D01*
X293492Y291651D01*
X293405Y291629D01*
X293320Y291604D01*
X293235Y291576D01*
X293152Y291543D01*
X293070Y291507D01*
X292990Y291468D01*
X292912Y291425D01*
X292836Y291379D01*
X292761Y291329D01*
X292689Y291276D01*
X292620Y291220D01*
X292553Y291161D01*
X292488Y291100D01*
X292427Y291035D01*
X292368Y290968D01*
X292312Y290899D01*
X292259Y290827D01*
X292209Y290752D01*
X292163Y290676D01*
X292120Y290598D01*
X292081Y290518D01*
X292045Y290436D01*
X292012Y290353D01*
X291984Y290268D01*
X291959Y290183D01*
X291937Y290096D01*
X291920Y290008D01*
X291907Y289920D01*
X291897Y289831D01*
X291891Y289742D01*
X291889Y289653D01*
X291889Y287607D01*
X292707Y294561D02*
X292707Y297016D01*
X292705Y297094D01*
X292700Y297172D01*
X292690Y297249D01*
X292677Y297326D01*
X292661Y297402D01*
X292641Y297477D01*
X292617Y297551D01*
X292590Y297624D01*
X292559Y297696D01*
X292525Y297766D01*
X292488Y297835D01*
X292447Y297901D01*
X292403Y297966D01*
X292357Y298028D01*
X292307Y298088D01*
X292255Y298146D01*
X292200Y298201D01*
X292142Y298253D01*
X292082Y298303D01*
X292020Y298349D01*
X291955Y298393D01*
X291889Y298434D01*
X291820Y298471D01*
X291750Y298505D01*
X291678Y298536D01*
X291605Y298563D01*
X291531Y298587D01*
X291456Y298607D01*
X291380Y298623D01*
X291303Y298636D01*
X291226Y298646D01*
X291148Y298651D01*
X291070Y298653D01*
X290661Y298653D01*
X290572Y298651D01*
X290483Y298645D01*
X290394Y298635D01*
X290306Y298622D01*
X290218Y298605D01*
X290131Y298583D01*
X290046Y298558D01*
X289961Y298530D01*
X289878Y298497D01*
X289796Y298461D01*
X289716Y298422D01*
X289638Y298379D01*
X289562Y298333D01*
X289487Y298283D01*
X289415Y298230D01*
X289346Y298174D01*
X289279Y298115D01*
X289214Y298054D01*
X289153Y297989D01*
X289094Y297922D01*
X289038Y297853D01*
X288985Y297781D01*
X288935Y297706D01*
X288889Y297630D01*
X288846Y297552D01*
X288807Y297472D01*
X288771Y297390D01*
X288738Y297307D01*
X288710Y297222D01*
X288685Y297137D01*
X288663Y297050D01*
X288646Y296962D01*
X288633Y296874D01*
X288623Y296785D01*
X288617Y296696D01*
X288615Y296607D01*
X288617Y296518D01*
X288623Y296429D01*
X288633Y296340D01*
X288646Y296252D01*
X288663Y296164D01*
X288685Y296077D01*
X288710Y295992D01*
X288738Y295907D01*
X288771Y295824D01*
X288807Y295742D01*
X288846Y295662D01*
X288889Y295584D01*
X288935Y295508D01*
X288985Y295433D01*
X289038Y295361D01*
X289094Y295292D01*
X289153Y295225D01*
X289214Y295160D01*
X289279Y295099D01*
X289346Y295040D01*
X289415Y294984D01*
X289487Y294931D01*
X289562Y294881D01*
X289638Y294835D01*
X289716Y294792D01*
X289796Y294753D01*
X289878Y294717D01*
X289961Y294684D01*
X290046Y294656D01*
X290131Y294631D01*
X290218Y294609D01*
X290306Y294592D01*
X290394Y294579D01*
X290483Y294569D01*
X290572Y294563D01*
X290661Y294561D01*
X292707Y294561D01*
X292821Y294563D01*
X292935Y294569D01*
X293049Y294579D01*
X293163Y294593D01*
X293276Y294611D01*
X293388Y294633D01*
X293499Y294658D01*
X293609Y294688D01*
X293719Y294721D01*
X293827Y294758D01*
X293933Y294799D01*
X294039Y294844D01*
X294142Y294892D01*
X294244Y294944D01*
X294344Y295000D01*
X294442Y295058D01*
X294538Y295121D01*
X294631Y295186D01*
X294723Y295255D01*
X294811Y295327D01*
X294898Y295402D01*
X294981Y295480D01*
X295062Y295561D01*
X295140Y295644D01*
X295215Y295731D01*
X295287Y295819D01*
X295356Y295911D01*
X295421Y296004D01*
X295483Y296100D01*
X295542Y296198D01*
X295598Y296298D01*
X295650Y296400D01*
X295698Y296503D01*
X295743Y296609D01*
X295784Y296715D01*
X295821Y296823D01*
X295854Y296933D01*
X295884Y297043D01*
X295909Y297154D01*
X295931Y297266D01*
X295949Y297379D01*
X295963Y297493D01*
X295973Y297607D01*
X295979Y297721D01*
X295981Y297835D01*
X295981Y302120D02*
X288615Y302120D01*
X295981Y302120D02*
X295981Y304166D01*
X295979Y304255D01*
X295973Y304344D01*
X295963Y304433D01*
X295950Y304521D01*
X295933Y304609D01*
X295911Y304696D01*
X295886Y304781D01*
X295858Y304866D01*
X295825Y304949D01*
X295789Y305031D01*
X295750Y305111D01*
X295707Y305189D01*
X295661Y305265D01*
X295611Y305340D01*
X295558Y305412D01*
X295502Y305481D01*
X295443Y305548D01*
X295382Y305613D01*
X295317Y305674D01*
X295250Y305733D01*
X295181Y305789D01*
X295109Y305842D01*
X295034Y305892D01*
X294958Y305938D01*
X294880Y305981D01*
X294800Y306020D01*
X294718Y306056D01*
X294635Y306089D01*
X294550Y306117D01*
X294465Y306142D01*
X294378Y306164D01*
X294290Y306181D01*
X294202Y306194D01*
X294113Y306204D01*
X294024Y306210D01*
X293935Y306212D01*
X290661Y306212D01*
X290572Y306210D01*
X290483Y306204D01*
X290394Y306194D01*
X290306Y306181D01*
X290218Y306164D01*
X290131Y306142D01*
X290046Y306117D01*
X289961Y306089D01*
X289878Y306056D01*
X289796Y306020D01*
X289716Y305981D01*
X289638Y305938D01*
X289562Y305892D01*
X289487Y305842D01*
X289415Y305789D01*
X289346Y305733D01*
X289279Y305674D01*
X289214Y305613D01*
X289153Y305548D01*
X289094Y305481D01*
X289038Y305412D01*
X288985Y305340D01*
X288935Y305265D01*
X288889Y305189D01*
X288846Y305111D01*
X288807Y305031D01*
X288771Y304949D01*
X288738Y304866D01*
X288710Y304781D01*
X288685Y304696D01*
X288663Y304609D01*
X288646Y304521D01*
X288633Y304433D01*
X288623Y304344D01*
X288617Y304255D01*
X288615Y304166D01*
X288615Y302120D01*
X313924Y287805D02*
X321290Y287805D01*
X321290Y289852D01*
X321288Y289941D01*
X321282Y290030D01*
X321272Y290119D01*
X321259Y290207D01*
X321242Y290295D01*
X321220Y290382D01*
X321195Y290467D01*
X321167Y290552D01*
X321134Y290635D01*
X321098Y290717D01*
X321059Y290797D01*
X321016Y290875D01*
X320970Y290951D01*
X320920Y291026D01*
X320867Y291098D01*
X320811Y291167D01*
X320752Y291234D01*
X320691Y291299D01*
X320626Y291360D01*
X320559Y291419D01*
X320490Y291475D01*
X320418Y291528D01*
X320343Y291578D01*
X320267Y291624D01*
X320189Y291667D01*
X320109Y291706D01*
X320027Y291742D01*
X319944Y291775D01*
X319859Y291803D01*
X319774Y291828D01*
X319687Y291850D01*
X319599Y291867D01*
X319511Y291880D01*
X319422Y291890D01*
X319333Y291896D01*
X319244Y291898D01*
X319155Y291896D01*
X319066Y291890D01*
X318977Y291880D01*
X318889Y291867D01*
X318801Y291850D01*
X318714Y291828D01*
X318629Y291803D01*
X318544Y291775D01*
X318461Y291742D01*
X318379Y291706D01*
X318299Y291667D01*
X318221Y291624D01*
X318145Y291578D01*
X318070Y291528D01*
X317998Y291475D01*
X317929Y291419D01*
X317862Y291360D01*
X317797Y291299D01*
X317736Y291234D01*
X317677Y291167D01*
X317621Y291098D01*
X317568Y291026D01*
X317518Y290951D01*
X317472Y290875D01*
X317429Y290797D01*
X317390Y290717D01*
X317354Y290635D01*
X317321Y290552D01*
X317293Y290467D01*
X317268Y290382D01*
X317246Y290295D01*
X317229Y290207D01*
X317216Y290119D01*
X317206Y290030D01*
X317200Y289941D01*
X317198Y289852D01*
X317198Y287805D01*
X319653Y294759D02*
X321290Y296805D01*
X313924Y296805D01*
X313924Y294759D02*
X313924Y298851D01*
X313924Y302318D02*
X321290Y302318D01*
X321290Y304364D01*
X321288Y304453D01*
X321282Y304542D01*
X321272Y304631D01*
X321259Y304719D01*
X321242Y304807D01*
X321220Y304894D01*
X321195Y304979D01*
X321167Y305064D01*
X321134Y305147D01*
X321098Y305229D01*
X321059Y305309D01*
X321016Y305387D01*
X320970Y305463D01*
X320920Y305538D01*
X320867Y305610D01*
X320811Y305679D01*
X320752Y305746D01*
X320691Y305811D01*
X320626Y305872D01*
X320559Y305931D01*
X320490Y305987D01*
X320418Y306040D01*
X320343Y306090D01*
X320267Y306136D01*
X320189Y306179D01*
X320109Y306218D01*
X320027Y306254D01*
X319944Y306287D01*
X319859Y306315D01*
X319774Y306340D01*
X319687Y306362D01*
X319599Y306379D01*
X319511Y306392D01*
X319422Y306402D01*
X319333Y306408D01*
X319244Y306410D01*
X315970Y306410D01*
X315881Y306408D01*
X315792Y306402D01*
X315703Y306392D01*
X315615Y306379D01*
X315527Y306362D01*
X315440Y306340D01*
X315355Y306315D01*
X315270Y306287D01*
X315187Y306254D01*
X315105Y306218D01*
X315025Y306179D01*
X314947Y306136D01*
X314871Y306090D01*
X314796Y306040D01*
X314724Y305987D01*
X314655Y305931D01*
X314588Y305872D01*
X314523Y305811D01*
X314462Y305746D01*
X314403Y305679D01*
X314347Y305610D01*
X314294Y305538D01*
X314244Y305463D01*
X314198Y305387D01*
X314155Y305309D01*
X314116Y305229D01*
X314080Y305147D01*
X314047Y305064D01*
X314019Y304979D01*
X313994Y304894D01*
X313972Y304807D01*
X313955Y304719D01*
X313942Y304631D01*
X313932Y304542D01*
X313926Y304453D01*
X313924Y304364D01*
X313924Y302318D01*
X325976Y287777D02*
X333342Y287777D01*
X333342Y289824D01*
X333340Y289913D01*
X333334Y290002D01*
X333324Y290091D01*
X333311Y290179D01*
X333294Y290267D01*
X333272Y290354D01*
X333247Y290439D01*
X333219Y290524D01*
X333186Y290607D01*
X333150Y290689D01*
X333111Y290769D01*
X333068Y290847D01*
X333022Y290923D01*
X332972Y290998D01*
X332919Y291070D01*
X332863Y291139D01*
X332804Y291206D01*
X332743Y291271D01*
X332678Y291332D01*
X332611Y291391D01*
X332542Y291447D01*
X332470Y291500D01*
X332395Y291550D01*
X332319Y291596D01*
X332241Y291639D01*
X332161Y291678D01*
X332079Y291714D01*
X331996Y291747D01*
X331911Y291775D01*
X331826Y291800D01*
X331739Y291822D01*
X331651Y291839D01*
X331563Y291852D01*
X331474Y291862D01*
X331385Y291868D01*
X331296Y291870D01*
X331207Y291868D01*
X331118Y291862D01*
X331029Y291852D01*
X330941Y291839D01*
X330853Y291822D01*
X330766Y291800D01*
X330681Y291775D01*
X330596Y291747D01*
X330513Y291714D01*
X330431Y291678D01*
X330351Y291639D01*
X330273Y291596D01*
X330197Y291550D01*
X330122Y291500D01*
X330050Y291447D01*
X329981Y291391D01*
X329914Y291332D01*
X329849Y291271D01*
X329788Y291206D01*
X329729Y291139D01*
X329673Y291070D01*
X329620Y290998D01*
X329570Y290923D01*
X329524Y290847D01*
X329481Y290769D01*
X329442Y290689D01*
X329406Y290607D01*
X329373Y290524D01*
X329345Y290439D01*
X329320Y290354D01*
X329298Y290267D01*
X329281Y290179D01*
X329268Y290091D01*
X329258Y290002D01*
X329252Y289913D01*
X329250Y289824D01*
X329250Y287777D01*
X331705Y294731D02*
X333342Y296777D01*
X325976Y296777D01*
X325976Y294731D02*
X325976Y298823D01*
X328022Y302290D02*
X333342Y302290D01*
X328022Y302290D02*
X327933Y302292D01*
X327844Y302298D01*
X327755Y302308D01*
X327667Y302321D01*
X327579Y302338D01*
X327492Y302360D01*
X327407Y302385D01*
X327322Y302413D01*
X327239Y302446D01*
X327157Y302482D01*
X327077Y302521D01*
X326999Y302564D01*
X326923Y302610D01*
X326848Y302660D01*
X326776Y302713D01*
X326707Y302769D01*
X326640Y302828D01*
X326575Y302889D01*
X326514Y302954D01*
X326455Y303021D01*
X326399Y303090D01*
X326346Y303162D01*
X326296Y303237D01*
X326250Y303313D01*
X326207Y303391D01*
X326168Y303471D01*
X326132Y303553D01*
X326099Y303636D01*
X326071Y303721D01*
X326046Y303806D01*
X326024Y303893D01*
X326007Y303981D01*
X325994Y304069D01*
X325984Y304158D01*
X325978Y304247D01*
X325976Y304336D01*
X325978Y304425D01*
X325984Y304514D01*
X325994Y304603D01*
X326007Y304691D01*
X326024Y304779D01*
X326046Y304866D01*
X326071Y304951D01*
X326099Y305036D01*
X326132Y305119D01*
X326168Y305201D01*
X326207Y305281D01*
X326250Y305359D01*
X326296Y305435D01*
X326346Y305510D01*
X326399Y305582D01*
X326455Y305651D01*
X326514Y305718D01*
X326575Y305783D01*
X326640Y305844D01*
X326707Y305903D01*
X326776Y305959D01*
X326848Y306012D01*
X326923Y306062D01*
X326999Y306108D01*
X327077Y306151D01*
X327157Y306190D01*
X327239Y306226D01*
X327322Y306259D01*
X327407Y306287D01*
X327492Y306312D01*
X327579Y306334D01*
X327667Y306351D01*
X327755Y306364D01*
X327844Y306374D01*
X327933Y306380D01*
X328022Y306382D01*
X333342Y306382D01*
X348499Y319465D02*
X349726Y319465D01*
X348499Y319465D02*
X348499Y315373D01*
X350954Y315373D01*
X351032Y315375D01*
X351110Y315380D01*
X351187Y315390D01*
X351264Y315403D01*
X351340Y315419D01*
X351415Y315439D01*
X351489Y315463D01*
X351562Y315490D01*
X351634Y315521D01*
X351704Y315555D01*
X351773Y315592D01*
X351839Y315633D01*
X351904Y315677D01*
X351966Y315723D01*
X352026Y315773D01*
X352084Y315825D01*
X352139Y315880D01*
X352191Y315938D01*
X352241Y315998D01*
X352287Y316060D01*
X352331Y316125D01*
X352372Y316192D01*
X352409Y316260D01*
X352443Y316330D01*
X352474Y316402D01*
X352501Y316475D01*
X352525Y316549D01*
X352545Y316624D01*
X352561Y316700D01*
X352574Y316777D01*
X352584Y316854D01*
X352589Y316932D01*
X352591Y317010D01*
X352591Y321102D01*
X352589Y321180D01*
X352584Y321258D01*
X352574Y321335D01*
X352561Y321412D01*
X352545Y321488D01*
X352525Y321563D01*
X352501Y321637D01*
X352474Y321710D01*
X352443Y321782D01*
X352409Y321852D01*
X352372Y321921D01*
X352331Y321987D01*
X352287Y322052D01*
X352241Y322114D01*
X352191Y322174D01*
X352139Y322232D01*
X352084Y322287D01*
X352026Y322339D01*
X351966Y322389D01*
X351904Y322435D01*
X351839Y322479D01*
X351773Y322520D01*
X351704Y322557D01*
X351634Y322591D01*
X351562Y322622D01*
X351489Y322649D01*
X351415Y322673D01*
X351340Y322693D01*
X351264Y322709D01*
X351187Y322722D01*
X351110Y322732D01*
X351032Y322737D01*
X350954Y322739D01*
X348499Y322739D01*
X344788Y322739D02*
X344788Y315373D01*
X340696Y315373D02*
X344788Y322739D01*
X340696Y322739D02*
X340696Y315373D01*
X336985Y315373D02*
X336985Y322739D01*
X334939Y322739D01*
X334850Y322737D01*
X334761Y322731D01*
X334672Y322721D01*
X334584Y322708D01*
X334496Y322691D01*
X334409Y322669D01*
X334324Y322644D01*
X334239Y322616D01*
X334156Y322583D01*
X334074Y322547D01*
X333994Y322508D01*
X333916Y322465D01*
X333840Y322419D01*
X333765Y322369D01*
X333693Y322316D01*
X333624Y322260D01*
X333557Y322201D01*
X333492Y322140D01*
X333431Y322075D01*
X333372Y322008D01*
X333316Y321939D01*
X333263Y321867D01*
X333213Y321792D01*
X333167Y321716D01*
X333124Y321638D01*
X333085Y321558D01*
X333049Y321476D01*
X333016Y321393D01*
X332988Y321308D01*
X332963Y321223D01*
X332941Y321136D01*
X332924Y321048D01*
X332911Y320960D01*
X332901Y320871D01*
X332895Y320782D01*
X332893Y320693D01*
X332893Y317419D01*
X332895Y317330D01*
X332901Y317241D01*
X332911Y317152D01*
X332924Y317064D01*
X332941Y316976D01*
X332963Y316889D01*
X332988Y316804D01*
X333016Y316719D01*
X333049Y316636D01*
X333085Y316554D01*
X333124Y316474D01*
X333167Y316396D01*
X333213Y316320D01*
X333263Y316245D01*
X333316Y316173D01*
X333372Y316104D01*
X333431Y316037D01*
X333492Y315972D01*
X333557Y315911D01*
X333624Y315852D01*
X333693Y315796D01*
X333765Y315743D01*
X333840Y315693D01*
X333916Y315647D01*
X333994Y315604D01*
X334074Y315565D01*
X334156Y315529D01*
X334239Y315496D01*
X334324Y315468D01*
X334409Y315443D01*
X334496Y315421D01*
X334584Y315404D01*
X334672Y315391D01*
X334761Y315381D01*
X334850Y315375D01*
X334939Y315373D01*
X336985Y315373D01*
X345447Y274818D02*
X345447Y265420D01*
X348057Y274818D02*
X342836Y274818D01*
X338740Y273513D02*
X338819Y273346D01*
X338894Y273177D01*
X338965Y273006D01*
X339032Y272834D01*
X339094Y272660D01*
X339153Y272484D01*
X339207Y272308D01*
X339257Y272130D01*
X339303Y271950D01*
X339345Y271770D01*
X339382Y271589D01*
X339415Y271407D01*
X339444Y271225D01*
X339468Y271041D01*
X339488Y270857D01*
X339503Y270673D01*
X339514Y270489D01*
X339521Y270304D01*
X339523Y270119D01*
X338740Y273513D02*
X338710Y273593D01*
X338677Y273672D01*
X338640Y273749D01*
X338600Y273825D01*
X338557Y273899D01*
X338511Y273971D01*
X338461Y274040D01*
X338409Y274108D01*
X338353Y274173D01*
X338295Y274236D01*
X338233Y274295D01*
X338170Y274353D01*
X338103Y274407D01*
X338035Y274458D01*
X337964Y274506D01*
X337891Y274551D01*
X337817Y274593D01*
X337740Y274631D01*
X337662Y274666D01*
X337583Y274698D01*
X337502Y274726D01*
X337420Y274750D01*
X337336Y274771D01*
X337253Y274788D01*
X337168Y274801D01*
X337083Y274810D01*
X336998Y274816D01*
X336912Y274818D01*
X336826Y274816D01*
X336741Y274810D01*
X336656Y274801D01*
X336571Y274788D01*
X336488Y274771D01*
X336404Y274750D01*
X336322Y274726D01*
X336242Y274698D01*
X336162Y274666D01*
X336084Y274631D01*
X336007Y274593D01*
X335933Y274551D01*
X335860Y274506D01*
X335789Y274458D01*
X335721Y274407D01*
X335654Y274353D01*
X335591Y274295D01*
X335530Y274236D01*
X335471Y274173D01*
X335416Y274108D01*
X335363Y274040D01*
X335313Y273971D01*
X335267Y273899D01*
X335224Y273825D01*
X335184Y273749D01*
X335147Y273672D01*
X335114Y273593D01*
X335084Y273513D01*
X335085Y273513D02*
X335006Y273346D01*
X334931Y273177D01*
X334860Y273006D01*
X334793Y272834D01*
X334731Y272660D01*
X334672Y272484D01*
X334618Y272308D01*
X334568Y272130D01*
X334522Y271950D01*
X334480Y271770D01*
X334443Y271589D01*
X334410Y271407D01*
X334381Y271225D01*
X334357Y271041D01*
X334337Y270857D01*
X334322Y270673D01*
X334311Y270489D01*
X334304Y270304D01*
X334302Y270119D01*
X339523Y270119D02*
X339521Y269934D01*
X339514Y269749D01*
X339503Y269565D01*
X339488Y269381D01*
X339468Y269197D01*
X339444Y269013D01*
X339415Y268831D01*
X339382Y268649D01*
X339345Y268468D01*
X339303Y268288D01*
X339257Y268108D01*
X339207Y267930D01*
X339153Y267754D01*
X339094Y267578D01*
X339032Y267404D01*
X338965Y267232D01*
X338894Y267061D01*
X338819Y266892D01*
X338740Y266725D01*
X338710Y266645D01*
X338677Y266566D01*
X338640Y266489D01*
X338600Y266413D01*
X338557Y266339D01*
X338511Y266267D01*
X338461Y266198D01*
X338408Y266130D01*
X338353Y266065D01*
X338294Y266002D01*
X338233Y265943D01*
X338170Y265885D01*
X338103Y265831D01*
X338035Y265780D01*
X337964Y265732D01*
X337891Y265687D01*
X337817Y265645D01*
X337740Y265607D01*
X337662Y265572D01*
X337583Y265540D01*
X337502Y265512D01*
X337420Y265488D01*
X337336Y265467D01*
X337253Y265450D01*
X337168Y265437D01*
X337083Y265428D01*
X336998Y265422D01*
X336912Y265420D01*
X335085Y266725D02*
X335006Y266892D01*
X334931Y267061D01*
X334860Y267232D01*
X334793Y267404D01*
X334731Y267578D01*
X334672Y267754D01*
X334618Y267930D01*
X334568Y268108D01*
X334522Y268288D01*
X334480Y268468D01*
X334443Y268649D01*
X334410Y268831D01*
X334381Y269013D01*
X334357Y269197D01*
X334337Y269381D01*
X334322Y269565D01*
X334311Y269749D01*
X334304Y269934D01*
X334302Y270119D01*
X335084Y266725D02*
X335114Y266645D01*
X335147Y266566D01*
X335184Y266489D01*
X335224Y266413D01*
X335267Y266339D01*
X335313Y266267D01*
X335363Y266198D01*
X335416Y266130D01*
X335471Y266065D01*
X335530Y266002D01*
X335591Y265943D01*
X335654Y265885D01*
X335721Y265831D01*
X335789Y265780D01*
X335860Y265732D01*
X335933Y265687D01*
X336007Y265645D01*
X336084Y265607D01*
X336162Y265572D01*
X336242Y265540D01*
X336322Y265512D01*
X336404Y265488D01*
X336488Y265467D01*
X336571Y265450D01*
X336656Y265437D01*
X336741Y265428D01*
X336826Y265422D01*
X336912Y265420D01*
X339001Y267508D02*
X334824Y272729D01*
X330379Y270119D02*
X330377Y270304D01*
X330370Y270489D01*
X330359Y270673D01*
X330344Y270857D01*
X330324Y271041D01*
X330300Y271225D01*
X330271Y271407D01*
X330238Y271589D01*
X330201Y271770D01*
X330159Y271950D01*
X330113Y272130D01*
X330063Y272308D01*
X330009Y272484D01*
X329950Y272660D01*
X329888Y272834D01*
X329821Y273006D01*
X329750Y273177D01*
X329675Y273346D01*
X329596Y273513D01*
X329597Y273513D02*
X329567Y273593D01*
X329534Y273672D01*
X329497Y273749D01*
X329457Y273825D01*
X329414Y273899D01*
X329368Y273971D01*
X329318Y274040D01*
X329266Y274108D01*
X329210Y274173D01*
X329152Y274236D01*
X329090Y274295D01*
X329027Y274353D01*
X328960Y274407D01*
X328892Y274458D01*
X328821Y274506D01*
X328748Y274551D01*
X328674Y274593D01*
X328597Y274631D01*
X328519Y274666D01*
X328440Y274698D01*
X328359Y274726D01*
X328277Y274750D01*
X328193Y274771D01*
X328110Y274788D01*
X328025Y274801D01*
X327940Y274810D01*
X327855Y274816D01*
X327769Y274818D01*
X327683Y274816D01*
X327598Y274810D01*
X327513Y274801D01*
X327428Y274788D01*
X327345Y274771D01*
X327261Y274750D01*
X327179Y274726D01*
X327099Y274698D01*
X327019Y274666D01*
X326941Y274631D01*
X326864Y274593D01*
X326790Y274551D01*
X326717Y274506D01*
X326646Y274458D01*
X326578Y274407D01*
X326511Y274353D01*
X326448Y274295D01*
X326387Y274236D01*
X326328Y274173D01*
X326273Y274108D01*
X326220Y274040D01*
X326170Y273971D01*
X326124Y273899D01*
X326081Y273825D01*
X326041Y273749D01*
X326004Y273672D01*
X325971Y273593D01*
X325941Y273513D01*
X325862Y273346D01*
X325787Y273177D01*
X325716Y273006D01*
X325649Y272834D01*
X325587Y272660D01*
X325528Y272484D01*
X325474Y272308D01*
X325424Y272130D01*
X325378Y271950D01*
X325336Y271770D01*
X325299Y271589D01*
X325266Y271407D01*
X325237Y271225D01*
X325213Y271041D01*
X325193Y270857D01*
X325178Y270673D01*
X325167Y270489D01*
X325160Y270304D01*
X325158Y270119D01*
X330379Y270119D02*
X330377Y269934D01*
X330370Y269749D01*
X330359Y269565D01*
X330344Y269381D01*
X330324Y269197D01*
X330300Y269013D01*
X330271Y268831D01*
X330238Y268649D01*
X330201Y268468D01*
X330159Y268288D01*
X330113Y268108D01*
X330063Y267930D01*
X330009Y267754D01*
X329950Y267578D01*
X329888Y267404D01*
X329821Y267232D01*
X329750Y267061D01*
X329675Y266892D01*
X329596Y266725D01*
X329597Y266725D02*
X329567Y266645D01*
X329534Y266566D01*
X329497Y266489D01*
X329457Y266413D01*
X329414Y266339D01*
X329368Y266267D01*
X329318Y266198D01*
X329265Y266130D01*
X329210Y266065D01*
X329151Y266002D01*
X329090Y265943D01*
X329027Y265885D01*
X328960Y265831D01*
X328892Y265780D01*
X328821Y265732D01*
X328748Y265687D01*
X328674Y265645D01*
X328597Y265607D01*
X328519Y265572D01*
X328440Y265540D01*
X328359Y265512D01*
X328277Y265488D01*
X328193Y265467D01*
X328110Y265450D01*
X328025Y265437D01*
X327940Y265428D01*
X327855Y265422D01*
X327769Y265420D01*
X325941Y266725D02*
X325862Y266892D01*
X325787Y267061D01*
X325716Y267232D01*
X325649Y267404D01*
X325587Y267578D01*
X325528Y267754D01*
X325474Y267930D01*
X325424Y268108D01*
X325378Y268288D01*
X325336Y268468D01*
X325299Y268649D01*
X325266Y268831D01*
X325237Y269013D01*
X325213Y269197D01*
X325193Y269381D01*
X325178Y269565D01*
X325167Y269749D01*
X325160Y269934D01*
X325158Y270119D01*
X325941Y266725D02*
X325971Y266645D01*
X326004Y266566D01*
X326041Y266489D01*
X326081Y266413D01*
X326124Y266339D01*
X326170Y266267D01*
X326220Y266198D01*
X326273Y266130D01*
X326328Y266065D01*
X326387Y266002D01*
X326448Y265943D01*
X326511Y265885D01*
X326578Y265831D01*
X326646Y265780D01*
X326717Y265732D01*
X326790Y265687D01*
X326864Y265645D01*
X326941Y265607D01*
X327019Y265572D01*
X327099Y265540D01*
X327179Y265512D01*
X327261Y265488D01*
X327345Y265467D01*
X327428Y265450D01*
X327513Y265437D01*
X327598Y265428D01*
X327683Y265422D01*
X327769Y265420D01*
X329857Y267508D02*
X325680Y272729D01*
X320873Y274818D02*
X320873Y265420D01*
X320873Y274818D02*
X318263Y274818D01*
X318162Y274816D01*
X318061Y274810D01*
X317960Y274800D01*
X317860Y274787D01*
X317760Y274769D01*
X317661Y274748D01*
X317563Y274722D01*
X317466Y274693D01*
X317370Y274661D01*
X317276Y274624D01*
X317183Y274584D01*
X317091Y274540D01*
X317002Y274493D01*
X316914Y274442D01*
X316828Y274388D01*
X316745Y274331D01*
X316663Y274271D01*
X316585Y274207D01*
X316508Y274141D01*
X316435Y274071D01*
X316364Y273999D01*
X316296Y273924D01*
X316231Y273846D01*
X316169Y273766D01*
X316110Y273684D01*
X316054Y273599D01*
X316002Y273513D01*
X315953Y273424D01*
X315907Y273333D01*
X315866Y273241D01*
X315827Y273147D01*
X315793Y273052D01*
X315762Y272956D01*
X315735Y272858D01*
X315711Y272760D01*
X315692Y272660D01*
X315676Y272560D01*
X315664Y272460D01*
X315656Y272359D01*
X315652Y272258D01*
X315652Y272156D01*
X315656Y272055D01*
X315664Y271954D01*
X315676Y271854D01*
X315692Y271754D01*
X315711Y271654D01*
X315735Y271556D01*
X315762Y271458D01*
X315793Y271362D01*
X315827Y271267D01*
X315866Y271173D01*
X315907Y271081D01*
X315953Y270990D01*
X316002Y270902D01*
X316054Y270815D01*
X316110Y270730D01*
X316169Y270648D01*
X316231Y270568D01*
X316296Y270490D01*
X316364Y270415D01*
X316435Y270343D01*
X316508Y270273D01*
X316585Y270207D01*
X316663Y270143D01*
X316745Y270083D01*
X316828Y270026D01*
X316914Y269972D01*
X317002Y269921D01*
X317091Y269874D01*
X317183Y269830D01*
X317276Y269790D01*
X317370Y269753D01*
X317466Y269721D01*
X317563Y269692D01*
X317661Y269666D01*
X317760Y269645D01*
X317860Y269627D01*
X317960Y269614D01*
X318061Y269604D01*
X318162Y269598D01*
X318263Y269596D01*
X318263Y269597D02*
X320873Y269597D01*
X317741Y269597D02*
X315652Y265420D01*
X312308Y265420D02*
X309176Y274818D01*
X306043Y265420D01*
X306826Y267769D02*
X311525Y267769D01*
X302642Y272729D02*
X300032Y274818D01*
X300032Y265420D01*
X302642Y265420D02*
X297421Y265420D01*
M02*
