G04 EAGLE Gerber RS-274X export*
G75*
%MOMM*%
%FSLAX34Y34*%
%LPD*%
%INBottom Copper*%
%IPPOS*%
%AMOC8*
5,1,8,0,0,1.08239X$1,22.5*%
G01*
%ADD10C,1.000000*%
%ADD11C,0.609600*%
%ADD12C,0.756400*%
%ADD13C,0.609600*%
%ADD14C,0.406400*%

G36*
X192791Y253760D02*
X192791Y253760D01*
X192818Y253758D01*
X192888Y253780D01*
X192960Y253794D01*
X192982Y253809D01*
X193007Y253817D01*
X193063Y253865D01*
X193124Y253907D01*
X193138Y253929D01*
X193159Y253947D01*
X193191Y254013D01*
X193231Y254074D01*
X193235Y254101D01*
X193247Y254125D01*
X193257Y254231D01*
X193264Y254271D01*
X193262Y254279D01*
X193263Y254290D01*
X193083Y256775D01*
X193075Y256802D01*
X193074Y256839D01*
X192979Y257298D01*
X454504Y257295D01*
X454417Y256830D01*
X454417Y256801D01*
X454409Y256765D01*
X454276Y254281D01*
X454279Y254259D01*
X454276Y254237D01*
X454294Y254161D01*
X454305Y254084D01*
X454317Y254065D01*
X454322Y254044D01*
X454368Y253981D01*
X454409Y253914D01*
X454427Y253902D01*
X454440Y253884D01*
X454507Y253844D01*
X454570Y253798D01*
X454592Y253794D01*
X454611Y253782D01*
X454735Y253761D01*
X454764Y253755D01*
X454769Y253756D01*
X454775Y253755D01*
X473686Y253755D01*
X473754Y253769D01*
X473822Y253774D01*
X473850Y253788D01*
X473881Y253794D01*
X473938Y253834D01*
X473999Y253865D01*
X474019Y253889D01*
X474045Y253907D01*
X474082Y253965D01*
X474126Y254018D01*
X474135Y254048D01*
X474152Y254074D01*
X474163Y254143D01*
X474183Y254209D01*
X474180Y254240D01*
X474185Y254271D01*
X474169Y254338D01*
X474161Y254406D01*
X474146Y254434D01*
X474139Y254464D01*
X474098Y254520D01*
X474064Y254580D01*
X474037Y254602D01*
X474021Y254624D01*
X473985Y254645D01*
X473936Y254686D01*
X457459Y264225D01*
X457432Y264234D01*
X457409Y264251D01*
X457339Y264266D01*
X457270Y264289D01*
X457242Y264287D01*
X457215Y264293D01*
X457144Y264279D01*
X457072Y264274D01*
X457047Y264261D01*
X457019Y264255D01*
X456959Y264215D01*
X456895Y264182D01*
X456877Y264160D01*
X456854Y264145D01*
X456795Y264061D01*
X456768Y264029D01*
X456765Y264019D01*
X456758Y264009D01*
X455685Y261765D01*
X455678Y261737D01*
X455660Y261704D01*
X455508Y261238D01*
X414341Y285007D01*
X414330Y285004D01*
X414326Y285005D01*
X414159Y284832D01*
X414159Y284831D01*
X414158Y284831D01*
X413585Y284003D01*
X413307Y283953D01*
X413305Y283949D01*
X413301Y283949D01*
X412710Y283341D01*
X412710Y283336D01*
X412706Y283334D01*
X412704Y283320D01*
X412703Y283308D01*
X412672Y283105D01*
X412670Y283093D01*
X412664Y283056D01*
X411853Y282459D01*
X411853Y282458D01*
X411852Y282458D01*
X411151Y281736D01*
X410869Y281732D01*
X410868Y281731D01*
X410866Y281729D01*
X410862Y281729D01*
X410179Y281226D01*
X410178Y281222D01*
X410174Y281221D01*
X410087Y280953D01*
X409189Y280498D01*
X409189Y280497D01*
X409187Y280497D01*
X408377Y279900D01*
X408098Y279942D01*
X408095Y279940D01*
X408094Y279940D01*
X408091Y279941D01*
X407334Y279558D01*
X407333Y279553D01*
X407329Y279553D01*
X407199Y279303D01*
X406238Y279002D01*
X406238Y279001D01*
X406236Y279001D01*
X405339Y278546D01*
X405071Y278634D01*
X405067Y278632D01*
X405064Y278634D01*
X404254Y278380D01*
X404252Y278376D01*
X404248Y278376D01*
X404078Y278151D01*
X403081Y278012D01*
X403080Y278011D01*
X403079Y278012D01*
X402119Y277710D01*
X401869Y277841D01*
X401865Y277840D01*
X401862Y277842D01*
X401022Y277725D01*
X401019Y277722D01*
X401015Y277722D01*
X400811Y277528D01*
X400784Y277529D01*
X400783Y277529D01*
X400341Y277541D01*
X400340Y277541D01*
X399897Y277553D01*
X399896Y277553D01*
X399804Y277555D01*
X399803Y277554D01*
X399802Y277555D01*
X398806Y277416D01*
X398581Y277586D01*
X398576Y277586D01*
X398574Y277588D01*
X398566Y277589D01*
X398565Y277589D01*
X398122Y277601D01*
X398121Y277601D01*
X397726Y277611D01*
X397722Y277608D01*
X397719Y277609D01*
X397485Y277452D01*
X396497Y277644D01*
X396496Y277643D01*
X396495Y277644D01*
X396346Y277648D01*
X395902Y277660D01*
X395489Y277671D01*
X395296Y277876D01*
X395291Y277876D01*
X395289Y277879D01*
X394456Y278041D01*
X394452Y278039D01*
X394449Y278041D01*
X394193Y277924D01*
X393250Y278276D01*
X393248Y278276D01*
X393248Y278277D01*
X392260Y278469D01*
X392103Y278702D01*
X392098Y278704D01*
X392097Y278707D01*
X391302Y279004D01*
X391298Y279002D01*
X391295Y279004D01*
X391023Y278931D01*
X390151Y279434D01*
X390149Y279434D01*
X390149Y279435D01*
X389769Y279577D01*
X389761Y279574D01*
X389757Y279574D01*
X388640Y278457D01*
X388640Y278456D01*
X388638Y278455D01*
X388640Y278451D01*
X388640Y278450D01*
X388639Y278450D01*
X388640Y278449D01*
X388639Y278442D01*
X388643Y278441D01*
X388644Y278438D01*
X389380Y278133D01*
X391158Y276355D01*
X392121Y274031D01*
X392121Y271515D01*
X391158Y269192D01*
X389380Y267413D01*
X387056Y266450D01*
X384540Y266450D01*
X383433Y266909D01*
X383430Y266908D01*
X383428Y266910D01*
X366410Y266910D01*
X366407Y266908D01*
X366405Y266909D01*
X364635Y266176D01*
X362120Y266176D01*
X360350Y266909D01*
X360347Y266908D01*
X360345Y266910D01*
X352792Y266910D01*
X332455Y287248D01*
X332455Y314074D01*
X332453Y314077D01*
X332454Y314079D01*
X331721Y315849D01*
X331721Y318364D01*
X332683Y320688D01*
X334462Y322466D01*
X336786Y323429D01*
X339301Y323429D01*
X341625Y322466D01*
X343404Y320688D01*
X344366Y318364D01*
X344366Y315849D01*
X343633Y314079D01*
X343634Y314076D01*
X343632Y314074D01*
X343632Y291882D01*
X343636Y291878D01*
X343636Y291874D01*
X356417Y279092D01*
X356423Y279092D01*
X356429Y279089D01*
X356430Y279092D01*
X356433Y279091D01*
X356434Y279099D01*
X356436Y279103D01*
X356437Y279105D01*
X355698Y280888D01*
X355698Y283403D01*
X356661Y285727D01*
X358440Y287506D01*
X360763Y288468D01*
X363279Y288468D01*
X365603Y287506D01*
X366387Y286722D01*
X366392Y286722D01*
X366393Y286721D01*
X366395Y286718D01*
X381894Y286718D01*
X381896Y286720D01*
X381899Y286720D01*
X381901Y286724D01*
X381906Y286729D01*
X381904Y286731D01*
X381905Y286731D01*
X381903Y286733D01*
X381904Y286737D01*
X381464Y287452D01*
X381460Y287453D01*
X381459Y287456D01*
X381199Y287566D01*
X380820Y288498D01*
X380819Y288499D01*
X380819Y288500D01*
X380291Y289357D01*
X380356Y289631D01*
X380356Y289632D01*
X380357Y289632D01*
X380355Y289634D01*
X380354Y289635D01*
X380356Y289638D01*
X380036Y290424D01*
X380032Y290426D01*
X380031Y290430D01*
X379793Y290580D01*
X379573Y291563D01*
X379572Y291563D01*
X379572Y291564D01*
X379193Y292497D01*
X379302Y292756D01*
X379301Y292758D01*
X379303Y292760D01*
X379301Y292761D01*
X379303Y292763D01*
X379117Y293591D01*
X379113Y293594D01*
X379113Y293598D01*
X378903Y293785D01*
X378847Y294790D01*
X378846Y294791D01*
X378847Y294792D01*
X378626Y295774D01*
X378776Y296012D01*
X378776Y296017D01*
X378778Y296019D01*
X378731Y296867D01*
X378728Y296870D01*
X378728Y296873D01*
X378552Y297093D01*
X378574Y297296D01*
X378575Y297296D01*
X378574Y297296D01*
X378576Y297308D01*
X378577Y297320D01*
X378578Y297332D01*
X378580Y297344D01*
X378615Y297666D01*
X378617Y297678D01*
X378618Y297690D01*
X378619Y297702D01*
X378620Y297714D01*
X378657Y298048D01*
X378659Y298060D01*
X378660Y298072D01*
X378661Y298084D01*
X378662Y298094D01*
X378661Y298095D01*
X378662Y298096D01*
X378606Y299101D01*
X378794Y299310D01*
X378794Y299315D01*
X378797Y299317D01*
X378825Y299576D01*
X378827Y299588D01*
X378828Y299600D01*
X378829Y299612D01*
X378831Y299624D01*
X378867Y299958D01*
X378869Y299970D01*
X378870Y299982D01*
X378871Y299994D01*
X378873Y300006D01*
X378890Y300161D01*
X378887Y300164D01*
X378888Y300168D01*
X378751Y300413D01*
X379024Y301382D01*
X379023Y301384D01*
X379024Y301384D01*
X379054Y301653D01*
X379055Y301665D01*
X379056Y301677D01*
X379057Y301677D01*
X379056Y301677D01*
X379058Y301689D01*
X379059Y301701D01*
X379060Y301713D01*
X379062Y301725D01*
X379063Y301737D01*
X379117Y302226D01*
X379118Y302238D01*
X379120Y302250D01*
X379121Y302262D01*
X379122Y302274D01*
X379123Y302286D01*
X379125Y302298D01*
X379134Y302385D01*
X379354Y302561D01*
X379355Y302565D01*
X379358Y302567D01*
X379588Y303384D01*
X379586Y303388D01*
X379588Y303391D01*
X379493Y303656D01*
X379922Y304566D01*
X379921Y304568D01*
X379923Y304568D01*
X379995Y304826D01*
X379994Y304828D01*
X379995Y304828D01*
X379994Y304830D01*
X379990Y304836D01*
X379990Y304840D01*
X338876Y328578D01*
X340576Y331034D01*
X340587Y331061D01*
X340605Y331083D01*
X340626Y331151D01*
X340654Y331217D01*
X340654Y331246D01*
X340662Y331273D01*
X340655Y331344D01*
X340655Y331416D01*
X340644Y331442D01*
X340641Y331471D01*
X340606Y331533D01*
X340578Y331599D01*
X340557Y331619D01*
X340543Y331644D01*
X340466Y331709D01*
X340436Y331738D01*
X340426Y331742D01*
X340415Y331750D01*
X323938Y341290D01*
X323864Y341315D01*
X323793Y341346D01*
X323771Y341346D01*
X323750Y341353D01*
X323672Y341347D01*
X323594Y341348D01*
X323571Y341339D01*
X323551Y341338D01*
X323512Y341317D01*
X323438Y341290D01*
X306984Y331790D01*
X306963Y331771D01*
X306937Y331759D01*
X306889Y331706D01*
X306835Y331658D01*
X306823Y331633D01*
X306804Y331612D01*
X306780Y331544D01*
X306749Y331479D01*
X306748Y331451D01*
X306739Y331424D01*
X306743Y331352D01*
X306740Y331280D01*
X306750Y331254D01*
X306752Y331225D01*
X306795Y331133D01*
X306810Y331094D01*
X306817Y331086D01*
X306822Y331075D01*
X308529Y328595D01*
X275329Y309427D01*
X275328Y309424D01*
X275325Y309422D01*
X275326Y309418D01*
X275324Y309412D01*
X275329Y309410D01*
X275331Y309405D01*
X276091Y309091D01*
X277869Y307312D01*
X278832Y304988D01*
X278832Y302473D01*
X277869Y300149D01*
X276091Y298371D01*
X273767Y297408D01*
X272658Y297408D01*
X272654Y297404D01*
X272650Y297404D01*
X268121Y292876D01*
X268121Y292872D01*
X268118Y292870D01*
X268096Y292772D01*
X268098Y292768D01*
X268097Y292765D01*
X268206Y292506D01*
X267827Y291573D01*
X267828Y291572D01*
X267827Y291571D01*
X267607Y290589D01*
X267369Y290438D01*
X267368Y290434D01*
X267364Y290433D01*
X267044Y289644D01*
X267045Y289639D01*
X267043Y289636D01*
X267109Y289362D01*
X266581Y288505D01*
X266582Y288503D01*
X266581Y288503D01*
X266202Y287571D01*
X265942Y287461D01*
X265940Y287457D01*
X265937Y287456D01*
X265491Y286730D01*
X265492Y286726D01*
X265489Y286723D01*
X265508Y286442D01*
X264847Y285684D01*
X264847Y285682D01*
X264846Y285682D01*
X264319Y284824D01*
X264045Y284759D01*
X264043Y284755D01*
X264039Y284755D01*
X263480Y284113D01*
X263480Y284109D01*
X263478Y284108D01*
X263478Y284107D01*
X263477Y284106D01*
X263450Y283826D01*
X262672Y283186D01*
X262672Y283185D01*
X262671Y283185D01*
X262103Y282532D01*
X262103Y282528D01*
X262100Y282526D01*
X262103Y282522D01*
X262103Y282516D01*
X262108Y282516D01*
X262112Y282512D01*
X263635Y282512D01*
X265404Y281779D01*
X265407Y281780D01*
X265408Y281779D01*
X265409Y281779D01*
X265409Y281778D01*
X283662Y281778D01*
X283663Y281779D01*
X283665Y281780D01*
X283667Y281779D01*
X285663Y282606D01*
X288179Y282606D01*
X290503Y281644D01*
X292281Y279865D01*
X293244Y277541D01*
X293244Y275026D01*
X292281Y272702D01*
X290503Y270923D01*
X288179Y269961D01*
X285663Y269961D01*
X284120Y270600D01*
X284117Y270599D01*
X284116Y270601D01*
X265409Y270601D01*
X265407Y270599D01*
X265404Y270600D01*
X263635Y269867D01*
X261119Y269867D01*
X258795Y270829D01*
X257017Y272608D01*
X256054Y274932D01*
X256054Y277447D01*
X256742Y279108D01*
X256741Y279112D01*
X256742Y279117D01*
X256739Y279118D01*
X256737Y279123D01*
X256731Y279121D01*
X256725Y279123D01*
X256375Y278921D01*
X256103Y278993D01*
X256099Y278991D01*
X256096Y278993D01*
X255298Y278694D01*
X255296Y278690D01*
X255292Y278690D01*
X255135Y278456D01*
X254147Y278263D01*
X254146Y278262D01*
X254145Y278263D01*
X253203Y277910D01*
X252946Y278027D01*
X252942Y278025D01*
X252939Y278027D01*
X252103Y277864D01*
X252100Y277860D01*
X252097Y277861D01*
X251903Y277656D01*
X251621Y277648D01*
X251620Y277648D01*
X251188Y277636D01*
X251187Y277636D01*
X250897Y277628D01*
X250896Y277627D01*
X250895Y277628D01*
X249907Y277435D01*
X249674Y277592D01*
X249669Y277592D01*
X249667Y277594D01*
X249456Y277589D01*
X249455Y277589D01*
X249023Y277577D01*
X249022Y277577D01*
X248815Y277571D01*
X248812Y277568D01*
X248808Y277569D01*
X248584Y277399D01*
X247587Y277537D01*
X247585Y277536D01*
X247585Y277537D01*
X247291Y277529D01*
X247290Y277529D01*
X246858Y277517D01*
X246857Y277517D01*
X246578Y277509D01*
X246374Y277703D01*
X246369Y277703D01*
X246367Y277706D01*
X245524Y277823D01*
X245520Y277820D01*
X245516Y277822D01*
X245267Y277691D01*
X244306Y277992D01*
X244305Y277991D01*
X244304Y277992D01*
X243307Y278130D01*
X243138Y278355D01*
X243133Y278356D01*
X243132Y278359D01*
X242319Y278613D01*
X242314Y278611D01*
X242311Y278613D01*
X242044Y278526D01*
X241146Y278980D01*
X241144Y278980D01*
X241144Y278981D01*
X240183Y279281D01*
X240053Y279531D01*
X240048Y279532D01*
X240047Y279536D01*
X239287Y279920D01*
X239283Y279919D01*
X239280Y279922D01*
X239002Y279879D01*
X238191Y280475D01*
X238189Y280475D01*
X238189Y280476D01*
X237291Y280931D01*
X237203Y281198D01*
X237199Y281201D01*
X237199Y281204D01*
X236513Y281709D01*
X236508Y281708D01*
X236506Y281711D01*
X236224Y281715D01*
X235522Y282436D01*
X235521Y282436D01*
X235521Y282438D01*
X234710Y283034D01*
X234667Y283312D01*
X234664Y283315D01*
X234664Y283319D01*
X234070Y283929D01*
X234065Y283930D01*
X234064Y283933D01*
X233786Y283983D01*
X233213Y284810D01*
X233212Y284810D01*
X233212Y284812D01*
X233032Y284996D01*
X233021Y284997D01*
X233018Y284998D01*
X191890Y261253D01*
X191736Y261695D01*
X191721Y261720D01*
X191710Y261755D01*
X190593Y263982D01*
X190579Y264000D01*
X190571Y264022D01*
X190518Y264078D01*
X190470Y264138D01*
X190450Y264149D01*
X190434Y264166D01*
X190363Y264197D01*
X190296Y264234D01*
X190273Y264237D01*
X190252Y264246D01*
X190175Y264247D01*
X190098Y264255D01*
X190076Y264248D01*
X190053Y264248D01*
X189940Y264206D01*
X189908Y264196D01*
X189904Y264193D01*
X189897Y264190D01*
X173443Y254686D01*
X173391Y254640D01*
X173334Y254601D01*
X173317Y254575D01*
X173294Y254555D01*
X173264Y254492D01*
X173227Y254434D01*
X173221Y254403D01*
X173208Y254375D01*
X173205Y254306D01*
X173193Y254237D01*
X173201Y254207D01*
X173199Y254177D01*
X173223Y254112D01*
X173239Y254044D01*
X173258Y254019D01*
X173269Y253990D01*
X173316Y253940D01*
X173357Y253884D01*
X173384Y253868D01*
X173405Y253846D01*
X173469Y253818D01*
X173528Y253782D01*
X173563Y253777D01*
X173587Y253766D01*
X173629Y253765D01*
X173692Y253755D01*
X192765Y253755D01*
X192791Y253760D01*
G37*
G36*
X250574Y280162D02*
X250574Y280162D01*
X250608Y280170D01*
X250656Y280171D01*
X253412Y280709D01*
X253444Y280723D01*
X253491Y280732D01*
X256120Y281716D01*
X256150Y281735D01*
X256195Y281751D01*
X258627Y283155D01*
X258653Y283178D01*
X258694Y283202D01*
X260862Y284987D01*
X260883Y285014D01*
X260921Y285045D01*
X262765Y287162D01*
X262782Y287192D01*
X262814Y287228D01*
X264284Y289620D01*
X264296Y289653D01*
X264321Y289694D01*
X265378Y292295D01*
X265384Y292329D01*
X265402Y292374D01*
X266016Y295114D01*
X266017Y295148D01*
X266028Y295195D01*
X266182Y297999D01*
X266177Y298033D01*
X266180Y298081D01*
X265871Y300872D01*
X265860Y300905D01*
X265855Y300953D01*
X265091Y303654D01*
X265075Y303685D01*
X265062Y303732D01*
X263864Y306271D01*
X263847Y306294D01*
X263836Y306322D01*
X263788Y306373D01*
X263745Y306430D01*
X263720Y306445D01*
X263700Y306466D01*
X263635Y306495D01*
X263573Y306530D01*
X263544Y306534D01*
X263518Y306546D01*
X263447Y306547D01*
X263376Y306556D01*
X263348Y306548D01*
X263319Y306548D01*
X263226Y306513D01*
X263185Y306502D01*
X263176Y306495D01*
X263163Y306490D01*
X233718Y289490D01*
X233696Y289471D01*
X233670Y289458D01*
X233637Y289422D01*
X233632Y289418D01*
X233626Y289410D01*
X233622Y289406D01*
X233569Y289358D01*
X233557Y289332D01*
X233537Y289310D01*
X233514Y289243D01*
X233483Y289179D01*
X233482Y289150D01*
X233473Y289122D01*
X233478Y289051D01*
X233475Y288980D01*
X233485Y288953D01*
X233487Y288924D01*
X233529Y288834D01*
X233544Y288794D01*
X233552Y288786D01*
X233557Y288773D01*
X235157Y286466D01*
X235182Y286442D01*
X235210Y286402D01*
X237168Y284390D01*
X237196Y284370D01*
X237230Y284336D01*
X239492Y282673D01*
X239524Y282658D01*
X239562Y282630D01*
X242067Y281362D01*
X242101Y281353D01*
X242144Y281331D01*
X244824Y280493D01*
X244858Y280489D01*
X244904Y280475D01*
X247685Y280089D01*
X247720Y280091D01*
X247767Y280085D01*
X250574Y280162D01*
G37*
G36*
X399654Y280109D02*
X399654Y280109D01*
X399702Y280107D01*
X402480Y280494D01*
X402513Y280506D01*
X402560Y280512D01*
X405237Y281351D01*
X405267Y281368D01*
X405313Y281382D01*
X407814Y282650D01*
X407842Y282672D01*
X407885Y282694D01*
X410143Y284356D01*
X410167Y284382D01*
X410205Y284410D01*
X410533Y284748D01*
X410534Y284748D01*
X411018Y285247D01*
X411019Y285247D01*
X411503Y285746D01*
X411504Y285746D01*
X411989Y286246D01*
X412160Y286422D01*
X412178Y286451D01*
X412212Y286485D01*
X413809Y288791D01*
X413820Y288818D01*
X413839Y288840D01*
X413859Y288908D01*
X413887Y288974D01*
X413887Y289003D01*
X413895Y289031D01*
X413887Y289102D01*
X413888Y289173D01*
X413876Y289200D01*
X413873Y289229D01*
X413838Y289291D01*
X413811Y289356D01*
X413790Y289376D01*
X413776Y289402D01*
X413714Y289453D01*
X413709Y289459D01*
X413699Y289465D01*
X413669Y289495D01*
X413658Y289499D01*
X413647Y289508D01*
X384225Y306469D01*
X384197Y306478D01*
X384173Y306495D01*
X384104Y306509D01*
X384036Y306532D01*
X384007Y306530D01*
X383979Y306536D01*
X383909Y306522D01*
X383838Y306516D01*
X383812Y306503D01*
X383784Y306497D01*
X383725Y306457D01*
X383662Y306425D01*
X383643Y306402D01*
X383619Y306386D01*
X383562Y306304D01*
X383535Y306271D01*
X383532Y306261D01*
X383524Y306249D01*
X382329Y303712D01*
X382321Y303678D01*
X382300Y303635D01*
X381539Y300936D01*
X381536Y300901D01*
X381523Y300855D01*
X381216Y298067D01*
X381219Y298033D01*
X381214Y297985D01*
X381370Y295185D01*
X381379Y295151D01*
X381382Y295103D01*
X381997Y292367D01*
X382011Y292335D01*
X382021Y292288D01*
X383078Y289690D01*
X383098Y289661D01*
X383116Y289617D01*
X384586Y287229D01*
X384610Y287203D01*
X384635Y287162D01*
X386478Y285049D01*
X386506Y285027D01*
X386537Y284991D01*
X388703Y283210D01*
X388734Y283193D01*
X388771Y283163D01*
X391201Y281762D01*
X391234Y281751D01*
X391275Y281727D01*
X393902Y280745D01*
X393937Y280740D01*
X393982Y280723D01*
X396735Y280187D01*
X396769Y280187D01*
X396817Y280178D01*
X399620Y280103D01*
X399654Y280109D01*
G37*
D10*
X323674Y332882D03*
D11*
X458437Y258420D03*
X188988Y258410D03*
D10*
X395241Y291525D03*
X252140Y291582D03*
D12*
X262377Y276189D03*
X286921Y276283D03*
X363377Y272499D03*
X385798Y272773D03*
D13*
X286827Y276189D02*
X262377Y276189D01*
D14*
X286827Y276189D02*
X286921Y276283D01*
D13*
X363377Y272499D02*
X385524Y272499D01*
D14*
X385798Y272773D01*
D13*
X363377Y272499D02*
X355107Y272499D01*
X338044Y289563D02*
X338044Y317106D01*
D12*
X338044Y317106D03*
D13*
X338044Y289563D02*
X355107Y272499D01*
D12*
X363781Y303997D03*
X305128Y261610D03*
X344338Y261610D03*
X362021Y282146D03*
D14*
X385862Y282146D01*
X395241Y291525D01*
D12*
X272509Y303731D03*
D14*
X260361Y291582D01*
X252140Y291582D01*
M02*
